<svg width="24" height="24" viewBox="0 0 24 24" fill="none" xmlns="http://www.w3.org/2000/svg">
<path d="M17.25 4.875H18C18 4.47718 17.842 4.09564 17.5607 3.81434C17.2794 3.53304 16.8978 3.375 16.5 3.375V4.125C16.6989 4.125 16.8897 4.20402 17.0303 4.34467C17.171 4.48532 17.25 4.67609 17.25 4.875Z" fill="#333333"/>
<path d="M18.75 4.875H19.5C19.4991 4.07962 19.1827 3.31708 18.6203 2.75467C18.0579 2.19225 17.2954 1.87589 16.5 1.875V2.625C17.0966 2.6256 17.6685 2.86284 18.0903 3.28467C18.5122 3.7065 18.7494 4.27845 18.75 4.875Z" fill="#333333"/>
<path d="M20.25 4.875H21C20.9987 3.68192 20.5242 2.53808 19.6806 1.69444C18.8369 0.850811 17.6931 0.37629 16.5 0.375V1.125C17.4942 1.12609 18.4474 1.52153 19.1504 2.22456C19.8535 2.92758 20.2489 3.88077 20.25 4.875ZM6.75 4.875C6.75 4.67609 6.82902 4.48532 6.96967 4.34467C7.11032 4.20402 7.30109 4.125 7.5 4.125V3.375C7.10218 3.375 6.72064 3.53304 6.43934 3.81434C6.15804 4.09564 6 4.47718 6 4.875H6.75Z" fill="#333333"/>
<path d="M7.5 1.875C6.70462 1.87589 5.94208 2.19225 5.37967 2.75467C4.81725 3.31708 4.50089 4.07962 4.5 4.875H5.25C5.2506 4.27845 5.48784 3.7065 5.90967 3.28467C6.3315 2.86284 6.90345 2.6256 7.5 2.625V1.875Z" fill="#333333"/>
<path d="M7.5 1.125V0.375C6.30692 0.37629 5.16308 0.850811 4.31944 1.69444C3.47581 2.53808 3.00129 3.68192 3 4.875H3.75C3.75109 3.88077 4.14653 2.92758 4.84956 2.22456C5.55258 1.52153 6.50577 1.12609 7.5 1.125ZM17.25 19.125C17.25 19.3239 17.171 19.5147 17.0303 19.6553C16.8897 19.796 16.6989 19.875 16.5 19.875V20.625C16.8978 20.625 17.2794 20.467 17.5607 20.1857C17.842 19.9044 18 19.5228 18 19.125H17.25Z" fill="#333333"/>
<path d="M16.5 22.125C17.2954 22.1241 18.0579 21.8077 18.6203 21.2453C19.1827 20.6829 19.4991 19.9204 19.5 19.125H18.75C18.7494 19.7216 18.5122 20.2935 18.0903 20.7153C17.6685 21.1372 17.0966 21.3744 16.5 21.375V22.125Z" fill="#333333"/>
<path d="M16.5 23.625C17.6931 23.6237 18.8369 23.1492 19.6806 22.3056C20.5242 21.4619 20.9987 20.3181 21 19.125H20.25C20.2489 20.1192 19.8535 21.0724 19.1504 21.7754C18.4474 22.4785 17.4942 22.8739 16.5 22.875V23.625ZM7.5 19.875C7.30109 19.875 7.11032 19.796 6.96967 19.6553C6.82902 19.5147 6.75 19.3239 6.75 19.125H6C6 19.5228 6.15804 19.9044 6.43934 20.1857C6.72064 20.467 7.10218 20.625 7.5 20.625V19.875Z" fill="#333333"/>
<path d="M7.5 22.125V21.375C6.90345 21.3744 6.3315 21.1372 5.90967 20.7153C5.48784 20.2935 5.2506 19.7216 5.25 19.125H4.5C4.50089 19.9204 4.81725 20.6829 5.37967 21.2453C5.94208 21.8077 6.70462 22.1241 7.5 22.125Z" fill="#333333"/>
<path d="M7.5 23.625V22.875C6.50577 22.8739 5.55258 22.4784 4.84956 21.7754C4.14653 21.0724 3.75109 20.1192 3.75 19.125H3C3.00129 20.318 3.47581 21.4619 4.31944 22.3055C5.16308 23.1492 6.30692 23.6237 7.5 23.625ZM19.0151 13.0608C19.1545 12.9215 19.265 12.7562 19.3404 12.5741C19.4159 12.3921 19.4547 12.197 19.4547 12C19.4547 11.8029 19.4159 11.6078 19.3404 11.4258C19.265 11.2438 19.1545 11.0784 19.0151 10.9391L18.4849 11.4697C18.6255 11.6104 18.7045 11.8011 18.7045 12C18.7045 12.1988 18.6255 12.3896 18.4849 12.5302L19.0151 13.0608Z" fill="#333333"/>
<path d="M20.0757 14.1214C20.3543 13.8428 20.5752 13.5121 20.726 13.1481C20.8768 12.7841 20.9544 12.394 20.9544 12C20.9544 11.6061 20.8768 11.2159 20.726 10.852C20.5752 10.488 20.3543 10.1572 20.0757 9.87866L19.5454 10.4089C19.7544 10.6178 19.9202 10.8659 20.0332 11.1389C20.1463 11.4119 20.2046 11.7045 20.2046 12C20.2046 12.2955 20.1463 12.5882 20.0332 12.8612C19.9202 13.1342 19.7544 13.3822 19.5454 13.5912L20.0757 14.1214Z" fill="#333333"/>
<path d="M21.7047 12C21.706 12.4926 21.6096 12.9807 21.4211 13.4358C21.2326 13.891 20.9556 14.3042 20.6063 14.6516L21.1366 15.1819C21.9804 14.338 22.4545 13.1934 22.4545 12C22.4545 10.8066 21.9804 9.66202 21.1366 8.81812L20.6063 9.34837C20.9556 9.69576 21.2326 10.109 21.4211 10.5642C21.6096 11.0193 21.706 11.5073 21.7047 12ZM4.93955 13.0609L5.4698 12.5302C5.3292 12.3896 5.25021 12.1989 5.25021 12C5.25021 11.8011 5.3292 11.6104 5.4698 11.4697L4.93955 10.9391C4.8002 11.0784 4.68966 11.2438 4.61424 11.4258C4.53882 11.6079 4.5 11.803 4.5 12C4.5 12.197 4.53882 12.3921 4.61424 12.5742C4.68966 12.7562 4.8002 12.9216 4.93955 13.0609Z" fill="#333333"/>
<path d="M3.87873 9.87866C3.60014 10.1572 3.37915 10.488 3.22838 10.852C3.0776 11.2159 3 11.6061 3 12C3 12.394 3.0776 12.7841 3.22838 13.1481C3.37915 13.5121 3.60014 13.8428 3.87873 14.1214L4.40898 13.5912C4.20001 13.3822 4.03424 13.1342 3.92115 12.8612C3.80805 12.5882 3.74984 12.2955 3.74984 12C3.74984 11.7045 3.80805 11.4119 3.92115 11.1389C4.03424 10.8659 4.20001 10.6178 4.40898 10.4089L3.87873 9.87866Z" fill="#333333"/>
<path d="M3.34841 14.6517C2.64516 13.9484 2.25008 12.9946 2.25008 12C2.25008 11.0055 2.64516 10.0517 3.34841 9.34842L2.81816 8.81817C1.97431 9.66208 1.50024 10.8066 1.50024 12C1.50024 13.1935 1.97431 14.338 2.81816 15.1819L3.34841 14.6517ZM7.12503 8.70717L5.90928 9.0113L6.09078 9.7388L7.12503 9.48042V14.625C7.12515 15.1448 7.16817 15.6637 7.25366 16.1764L7.63353 18.4568C7.71541 18.9586 7.97347 19.4147 8.36137 19.7434C8.74927 20.0721 9.24162 20.2517 9.75003 20.25H14.25C14.7584 20.2517 15.2507 20.0721 15.6386 19.7435C16.0265 19.415 16.2846 18.9589 16.3665 18.4572L16.7464 16.1764C16.8319 15.6637 16.8749 15.1448 16.875 14.625V9.48042L17.9093 9.7388L18.0908 9.0113L16.875 8.70717V7.35005C16.8746 6.87257 16.7603 6.40206 16.5418 5.97752C16.3233 5.55298 16.0067 5.18662 15.6184 4.9088C14.5625 4.15444 13.2973 3.7489 11.9997 3.7489C10.702 3.7489 9.43678 4.15444 8.38091 4.9088C7.99278 5.18677 7.67643 5.55318 7.45804 5.9777C7.23965 6.40222 7.1255 6.87265 7.12503 7.35005V8.70717ZM9.04466 9.6113L9.24678 9.5303C11.015 8.82679 12.9854 8.82679 14.7537 9.5303L14.9554 9.61092L14.6952 11.175C12.9194 10.7865 11.0807 10.7865 9.30491 11.175L9.04466 9.6113ZM15.375 11.6562L15.7077 9.6593L16.125 9.52055V14.625C16.1225 14.9953 16.0963 15.3651 16.0467 15.732L15.375 15.1947V11.6562ZM14.625 11.925V15.0814L14.5005 15.1125C12.8518 15.4615 11.1483 15.4615 9.49953 15.1125L9.37503 15.0822V11.925C11.1031 11.5328 12.897 11.5328 14.625 11.925ZM9.37503 15.8535C11.1063 16.2156 12.8938 16.2156 14.625 15.8535V16.5C14.625 16.699 14.546 16.8897 14.4054 17.0304C14.2647 17.171 14.0739 17.25 13.875 17.25H10.125C9.92612 17.25 9.73536 17.171 9.5947 17.0304C9.45405 16.8897 9.37503 16.699 9.37503 16.5V15.8535ZM8.29241 9.6593L8.62503 11.6562V15.1947L7.95341 15.732C7.90375 15.3651 7.87757 14.9953 7.87503 14.625V9.52055L8.29241 9.6593ZM15.6267 18.3338C15.5732 18.6601 15.4053 18.9566 15.153 19.1703C14.9008 19.384 14.5806 19.5009 14.25 19.5H9.75003C9.41942 19.5009 9.0993 19.384 8.84704 19.1703C8.59478 18.9566 8.42688 18.6601 8.37341 18.3338L8.08278 16.5893L8.62503 16.1554V16.5C8.62503 16.8979 8.78307 17.2794 9.06437 17.5607C9.34568 17.842 9.72721 18 10.125 18H13.875C14.2729 18 14.6544 17.842 14.9357 17.5607C15.217 17.2794 15.375 16.8979 15.375 16.5V16.1554L15.9173 16.5893L15.6267 18.3338ZM15.669 6.00005H15C14.9006 6.00005 14.8052 5.96054 14.7349 5.89021C14.6645 5.81989 14.625 5.7245 14.625 5.62505V5.17505C14.8176 5.27906 15.0039 5.39452 15.1827 5.5208C15.3682 5.65493 15.5322 5.81653 15.669 6.00005ZM13.875 4.8338V5.62505C13.875 5.92342 13.9936 6.20956 14.2045 6.42054C14.4155 6.63152 14.7017 6.75005 15 6.75005H16.0399C16.0954 6.94526 16.124 7.14711 16.125 7.35005V8.72855L15.3867 8.97455L15.0319 8.8328C13.085 8.05823 10.9154 8.05823 8.96853 8.8328L8.61341 8.97455L7.87503 8.72967V7.35005C7.87607 7.14711 7.90471 6.94526 7.96016 6.75005H9.00003C9.2984 6.75005 9.58455 6.63152 9.79553 6.42054C10.0065 6.20956 10.125 5.92342 10.125 5.62505V4.8338C11.3354 4.3888 12.6646 4.3888 13.875 4.8338ZM8.81741 5.52005C8.99623 5.39402 9.18244 5.27882 9.37503 5.17505V5.62505C9.37503 5.7245 9.33552 5.81989 9.2652 5.89021C9.19487 5.96054 9.09949 6.00005 9.00003 6.00005H8.33103C8.46762 5.81609 8.63166 5.6542 8.81741 5.52005Z" fill="#333333"/>
</svg>
