<svg width="20" height="21" viewBox="0 0 20 21" fill="none" xmlns="http://www.w3.org/2000/svg">
<g clip-path="url(#clip0_72_1920)">
<g clip-path="url(#clip1_72_1920)">
<path d="M15.1615 5.8564C16.4063 5.8564 17.4195 4.8435 17.4195 3.59834C17.4195 2.35317 16.4063 1.34027 15.1615 1.34027C13.9165 1.34027 12.9034 2.35317 12.9034 3.59834C12.9034 4.8435 13.9165 5.8564 15.1615 5.8564ZM15.1615 1.98543C16.0508 1.98543 16.7743 2.70898 16.7743 3.59834C16.7743 4.48769 16.0508 5.21124 15.1615 5.21124C14.272 5.21124 13.5485 4.48769 13.5485 3.59834C13.5485 2.70898 14.272 1.98543 15.1615 1.98543ZM4.83884 14.2435C4.30529 14.2435 3.87109 14.6777 3.87109 15.2112C3.87109 15.7448 4.30529 16.179 4.83884 16.179C5.37239 16.179 5.80658 15.7448 5.80658 15.2112C5.80658 14.6777 5.37239 14.2435 4.83884 14.2435ZM4.83884 15.5338C4.75578 15.5301 4.67736 15.4945 4.61989 15.4344C4.56244 15.3743 4.53037 15.2944 4.53037 15.2112C4.53037 15.1281 4.56244 15.0482 4.61989 14.9881C4.67736 14.928 4.75578 14.8924 4.83884 14.8887C4.92189 14.8924 5.00032 14.928 5.05779 14.9881C5.11524 15.0482 5.14731 15.1281 5.14731 15.2112C5.14731 15.2944 5.11524 15.3743 5.05779 15.4344C5.00032 15.4945 4.92189 15.5301 4.83884 15.5338Z" fill="#333333"/>
<path d="M17.0758 7.14676C17.1736 6.99321 17.2758 6.84289 17.3877 6.6987L17.9619 5.96031C18.4454 5.33696 18.7084 4.5708 18.7097 3.78192V3.59837C18.7097 1.64192 17.1178 0.0499878 15.1613 0.0499878C13.2048 0.0499878 11.6129 1.64192 11.6129 3.59837V3.78192C11.6129 4.56709 11.8784 5.34095 12.3603 5.96031L12.9345 6.6987C13.0464 6.84289 13.149 6.99354 13.2464 7.14676H0V20.05H20V7.14676H17.0758ZM12.8697 5.5645C12.4742 5.05432 12.2592 4.42741 12.2581 3.78192V3.59837C12.2581 1.99773 13.5603 0.695149 15.1613 0.695149C16.7623 0.695149 18.0645 1.99773 18.0645 3.59837V3.78192C18.0635 4.42742 17.8484 5.05435 17.4529 5.5645L16.8787 6.30289C16.1865 7.19355 15.7383 8.2492 15.5784 9.36582C15.5487 9.5719 15.3697 9.7274 15.1613 9.7274C14.9529 9.7274 14.7738 9.5719 14.7442 9.36549C14.5841 8.24891 14.1359 7.1933 13.4438 6.30257L12.8697 5.5645ZM15.1613 11.0177C13.389 11.0177 12.2581 10.4445 12.2581 10.05C12.2581 9.79065 12.8368 9.35615 14.0548 9.16965C14.0733 9.26515 14.0916 9.36065 14.1055 9.45707C14.1803 9.97899 14.6342 10.3726 15.1613 10.3726C15.6884 10.3726 16.1423 9.97899 16.2171 9.45707C16.231 9.36065 16.249 9.26515 16.2677 9.16999C17.4858 9.35615 18.0645 9.79065 18.0645 10.05C18.0645 10.4445 16.9336 11.0177 15.1613 11.0177ZM13.8938 8.5384C12.4964 8.76449 11.6129 9.33965 11.6129 10.05C11.6129 11.0322 13.22 11.5907 14.8387 11.6564V13.2758C14.8387 13.4536 14.6942 13.5984 14.5162 13.5984H11.2903C11.1122 13.5984 10.9677 13.4536 10.9677 13.2758V11.6629C10.9677 11.1293 10.5336 10.6952 10 10.6952C9.46642 10.6952 9.03225 11.1293 9.03225 11.6629V17.7919C9.02858 17.875 8.99292 17.9534 8.93283 18.0109C8.87275 18.0683 8.79283 18.1004 8.70967 18.1004C8.6265 18.1004 8.54658 18.0683 8.4865 18.0109C8.42642 17.9534 8.39083 17.875 8.38708 17.7919V15.8564C8.38708 15.3229 7.9529 14.8887 7.41936 14.8887H7.07097C7.01733 14.521 6.87389 14.1722 6.65333 13.8732C6.43278 13.5741 6.1419 13.334 5.80645 13.1742V7.79192H13.6026C13.7167 8.03385 13.8138 8.28321 13.8938 8.5384ZM3.87097 17.2484C4.173 17.3933 4.50367 17.4689 4.83871 17.4693C4.94838 17.4693 5.05548 17.4587 5.16129 17.4436V19.4048H3.87097V17.2484ZM4.83871 16.8242C3.94936 16.8242 3.22581 16.1007 3.22581 15.2112C3.22581 14.3219 3.94936 13.5984 4.83871 13.5984C5.72807 13.5984 6.45162 14.3219 6.45162 15.2112C6.45162 16.1007 5.72807 16.8242 4.83871 16.8242ZM3.87097 7.79192H5.16129V12.979C5.05452 12.9627 4.94672 12.9542 4.83871 12.9532C4.50367 12.9537 4.173 13.0292 3.87097 13.1742V11.0177H0.645162V9.7274H3.87097V7.79192ZM3.22581 7.79192V9.08224H0.645162V7.79192H3.22581ZM0.645162 11.6629H3.22581V13.6342C2.81198 14.0548 2.58005 14.6212 2.58005 15.2112C2.58005 15.8013 2.81198 16.3677 3.22581 16.7884V19.4048H0.645162V11.6629ZM19.3548 19.4048H5.80645V17.2484C6.1419 17.0885 6.43278 16.8485 6.65333 16.5494C6.87389 16.2503 7.01733 15.9016 7.07097 15.5338H7.41936C7.59742 15.5338 7.74193 15.6787 7.74193 15.8564V17.7919C7.74193 18.3255 8.17612 18.7597 8.70967 18.7597C9.24325 18.7597 9.67742 18.3255 9.67742 17.7919V11.6629C9.68117 11.5798 9.71675 11.5014 9.77683 11.444C9.83692 11.3865 9.91683 11.3544 10 11.3544C10.0832 11.3544 10.1631 11.3865 10.2232 11.444C10.2832 11.5014 10.3188 11.5798 10.3226 11.6629V13.2758C10.3226 13.8093 10.7568 14.2436 11.2903 14.2436H14.5162C15.0497 14.2436 15.4838 13.8093 15.4838 13.2758V11.6564C17.1026 11.5907 18.7097 11.0322 18.7097 10.05C18.7097 9.33965 17.8262 8.76449 16.4287 8.5384C16.5088 8.28289 16.6062 8.03385 16.72 7.79192H19.3548V19.4048Z" fill="#333333"/>
<path d="M18.0645 18.1146H18.7096V18.7597H18.0645V18.1146ZM16.7742 18.1146H17.4193V18.7597H16.7742V18.1146ZM15.4839 18.1146H16.1291V18.7597H15.4839V18.1146ZM15.4839 16.8242H18.7096V17.4694H15.4839V16.8242ZM15.4839 15.5339H18.7096V16.1791H15.4839V15.5339Z" fill="#333333"/>
</g>
</g>
<defs>
<clipPath id="clip0_72_1920">
<rect width="20" height="20" fill="white" transform="translate(0 0.0499878)"/>
</clipPath>
<clipPath id="clip1_72_1920">
<rect width="20" height="20" fill="white" transform="translate(0 0.0499878)"/>
</clipPath>
</defs>
</svg>
