<svg width="11" height="18" viewBox="0 0 11 18" fill="none" xmlns="http://www.w3.org/2000/svg">
<path d="M6.2968 9.04999L10.6299 5.79999C10.7076 5.74185 10.7707 5.66639 10.8142 5.57959C10.8576 5.4928 10.8803 5.39706 10.8803 5.29999C10.8803 5.20291 10.8576 5.10718 10.8142 5.02039C10.7707 4.93359 10.7076 4.85813 10.6299 4.79999L5.62988 1.04999C5.53705 0.980347 5.42663 0.937939 5.31105 0.927514C5.19538 0.917089 5.07922 0.939064 4.97538 0.990972C4.87155 1.04288 4.78422 1.12267 4.72322 1.22141C4.66222 1.32014 4.62988 1.43392 4.62988 1.54999V7.79999L1.87988 5.73749C1.81422 5.68825 1.73951 5.65241 1.66 5.63205C1.58049 5.61167 1.49775 5.60716 1.4165 5.61877C1.33525 5.63038 1.25707 5.65787 1.18645 5.69969C1.11582 5.74151 1.05413 5.79683 1.00488 5.86249C0.955641 5.92815 0.919808 6.00286 0.899441 6.08237C0.879066 6.16188 0.874558 6.24462 0.886166 6.32588C0.897775 6.40713 0.925275 6.4853 0.967091 6.55592C1.00891 6.62655 1.06422 6.68825 1.12988 6.73749L4.21301 9.04999L1.12988 11.3625C1.06422 11.4117 1.00891 11.4734 0.967091 11.5441C0.925275 11.6147 0.897775 11.6928 0.886166 11.7741C0.862725 11.9382 0.905433 12.1049 1.00488 12.2375C1.10434 12.3701 1.2524 12.4577 1.4165 12.4812C1.58059 12.5047 1.74727 12.4619 1.87988 12.3625L4.62988 10.3V16.55C4.62988 16.6661 4.66222 16.7798 4.72322 16.8786C4.78422 16.9773 4.87155 17.0571 4.97538 17.109C5.07922 17.1609 5.19538 17.1829 5.31105 17.1725C5.42663 17.1621 5.53705 17.1197 5.62988 17.05L10.6299 13.3C10.7076 13.2418 10.7707 13.1664 10.8142 13.0796C10.8576 12.9928 10.8803 12.8971 10.8803 12.8C10.8803 12.7029 10.8576 12.6072 10.8142 12.5204C10.7707 12.4336 10.7076 12.3582 10.6299 12.3L6.2968 9.04999ZM5.87988 2.79999L9.21305 5.29999L5.87988 7.79999V2.79999ZM5.87988 15.3V10.3L9.21305 12.8L5.87988 15.3Z" fill="#333333"/>
</svg>
