<svg width="21" height="21" viewBox="0 0 21 21" fill="none" xmlns="http://www.w3.org/2000/svg">
<g clip-path="url(#clip0_72_2063)">
<path d="M6.37695 4.38829V2.67163" stroke="#04ABFF" stroke-width="1.5" stroke-linecap="round" stroke-linejoin="round"/>
<path d="M14.9434 4.38829V2.67163" stroke="#04ABFF" stroke-width="1.5" stroke-linecap="round" stroke-linejoin="round"/>
<path d="M15.7021 3.53003H5.61882C4.14382 3.53003 2.95215 4.7217 2.95215 6.1967V15.43C2.95215 16.905 4.14382 18.0967 5.61882 18.0967H15.7105C17.1855 18.0967 18.3771 16.905 18.3771 15.43V6.1967C18.3688 4.7217 17.1771 3.53003 15.7021 3.53003Z" stroke="#04ABFF" stroke-width="1.5" stroke-linecap="round" stroke-linejoin="round"/>
<path d="M2.95215 6.96338H18.3688" stroke="#04ABFF" stroke-width="1.5" stroke-linecap="round" stroke-linejoin="round"/>
<path d="M15.6601 10.38C16.1203 10.38 16.4934 10.0069 16.4934 9.54672C16.4934 9.08648 16.1203 8.71338 15.6601 8.71338C15.1998 8.71338 14.8267 9.08648 14.8267 9.54672C14.8267 10.0069 15.1998 10.38 15.6601 10.38Z" fill="#04ABFF"/>
<path d="M12.327 10.38C12.7872 10.38 13.1603 10.0069 13.1603 9.54672C13.1603 9.08648 12.7872 8.71338 12.327 8.71338C11.8667 8.71338 11.4937 9.08648 11.4937 9.54672C11.4937 10.0069 11.8667 10.38 12.327 10.38Z" fill="#04ABFF"/>
<path d="M8.99349 10.38C9.45373 10.38 9.82683 10.0069 9.82683 9.54672C9.82683 9.08648 9.45373 8.71338 8.99349 8.71338C8.53326 8.71338 8.16016 9.08648 8.16016 9.54672C8.16016 10.0069 8.53326 10.38 8.99349 10.38Z" fill="#04ABFF"/>
<path d="M5.66048 10.38C6.12072 10.38 6.49381 10.0069 6.49381 9.54672C6.49381 9.08648 6.12072 8.71338 5.66048 8.71338C5.20024 8.71338 4.82715 9.08648 4.82715 9.54672C4.82715 10.0069 5.20024 10.38 5.66048 10.38Z" fill="#04ABFF"/>
<path d="M15.6601 13.2884C16.1203 13.2884 16.4934 12.9153 16.4934 12.455C16.4934 11.9948 16.1203 11.6217 15.6601 11.6217C15.1998 11.6217 14.8267 11.9948 14.8267 12.455C14.8267 12.9153 15.1998 13.2884 15.6601 13.2884Z" fill="#04ABFF"/>
<path d="M12.327 13.2884C12.7872 13.2884 13.1603 12.9153 13.1603 12.455C13.1603 11.9948 12.7872 11.6217 12.327 11.6217C11.8667 11.6217 11.4937 11.9948 11.4937 12.455C11.4937 12.9153 11.8667 13.2884 12.327 13.2884Z" fill="#04ABFF"/>
<path d="M8.99349 13.2884C9.45373 13.2884 9.82683 12.9153 9.82683 12.455C9.82683 11.9948 9.45373 11.6217 8.99349 11.6217C8.53326 11.6217 8.16016 11.9948 8.16016 12.455C8.16016 12.9153 8.53326 13.2884 8.99349 13.2884Z" fill="#04ABFF"/>
<path d="M5.66048 13.2884C6.12072 13.2884 6.49381 12.9153 6.49381 12.455C6.49381 11.9948 6.12072 11.6217 5.66048 11.6217C5.20024 11.6217 4.82715 11.9948 4.82715 12.455C4.82715 12.9153 5.20024 13.2884 5.66048 13.2884Z" fill="#04ABFF"/>
<path d="M12.327 16.1883C12.7872 16.1883 13.1603 15.8152 13.1603 15.3549C13.1603 14.8947 12.7872 14.5216 12.327 14.5216C11.8667 14.5216 11.4937 14.8947 11.4937 15.3549C11.4937 15.8152 11.8667 16.1883 12.327 16.1883Z" fill="#04ABFF"/>
<path d="M8.99349 16.1883C9.45373 16.1883 9.82683 15.8152 9.82683 15.3549C9.82683 14.8947 9.45373 14.5216 8.99349 14.5216C8.53326 14.5216 8.16016 14.8947 8.16016 15.3549C8.16016 15.8152 8.53326 16.1883 8.99349 16.1883Z" fill="#04ABFF"/>
<path d="M5.66048 16.1883C6.12072 16.1883 6.49381 15.8152 6.49381 15.3549C6.49381 14.8947 6.12072 14.5216 5.66048 14.5216C5.20024 14.5216 4.82715 14.8947 4.82715 15.3549C4.82715 15.8152 5.20024 16.1883 5.66048 16.1883Z" fill="#04ABFF"/>
</g>
<defs>
<clipPath id="clip0_72_2063">
<rect width="20" height="20" fill="white" transform="translate(0.660156 0.380005)"/>
</clipPath>
</defs>
</svg>
