<svg width="21" height="21" viewBox="0 0 21 21" fill="none" xmlns="http://www.w3.org/2000/svg">
<g clip-path="url(#clip0_72_1949)">
<g clip-path="url(#clip1_72_1949)">
<g clip-path="url(#clip2_72_1949)">
<path d="M15.1406 17.5087C13.9979 18.649 12.4495 19.2893 10.8351 19.2893C9.2208 19.2893 7.67233 18.649 6.52956 17.5087C6.45816 17.4373 6.36132 17.3972 6.26037 17.3973C6.15942 17.3973 6.06262 17.4375 5.99127 17.5089C5.91992 17.5803 5.87985 17.6771 5.87988 17.7781C5.87992 17.879 5.92006 17.9758 5.99146 18.0472C7.27716 19.3297 9.01907 20.0501 10.8351 20.0501C12.6511 20.0501 14.393 19.3297 15.6788 18.0472C15.7501 17.9758 15.7903 17.879 15.7904 17.7781C15.7904 17.6771 15.7503 17.5803 15.679 17.5089C15.6076 17.4375 15.5108 17.3973 15.4099 17.3973C15.3089 17.3972 15.212 17.4373 15.1406 17.5087Z" fill="#333333"/>
<path d="M15.7928 0.430544C15.7928 0.329616 15.7528 0.232821 15.6814 0.161454C15.61 0.0900869 15.5133 0.0499932 15.4123 0.0499932C15.3114 0.0499932 15.2146 0.0900869 15.1433 0.161454C15.0718 0.232821 15.0318 0.329616 15.0318 0.430544L15.0227 7.4578C13.0514 5.0923 13.7383 2.46915 14.7403 0.611306C14.7882 0.522489 14.7989 0.418265 14.77 0.321563C14.7411 0.22486 14.6749 0.1436 14.5862 0.0956593C14.4973 0.0477183 14.3931 0.0370233 14.2964 0.065927C14.1997 0.0948307 14.1184 0.160965 14.0705 0.249783C13.8404 0.675518 13.6418 1.1175 13.4761 1.5722H8.21572C8.05006 1.1175 7.85138 0.675518 7.62129 0.249783C7.57336 0.160965 7.49209 0.0948307 7.39539 0.065927C7.29869 0.0370233 7.19447 0.0477184 7.10565 0.0956594C7.01683 0.1436 6.9507 0.22486 6.92179 0.321563C6.89289 0.418265 6.90358 0.522489 6.95153 0.611306C7.95352 2.46915 8.64079 5.09191 6.66763 7.45742L6.66003 0.430544C6.66003 0.329616 6.61993 0.232821 6.54856 0.161454C6.47719 0.0900869 6.3804 0.0499932 6.27948 0.0499932C6.17854 0.0499932 6.08175 0.0900869 6.01038 0.161454C5.93902 0.232821 5.89893 0.329616 5.89893 0.430544L5.90768 8.35742C5.89988 8.40074 5.89988 8.44507 5.90768 8.48832V9.9439C5.90768 12.4289 9.57158 12.9883 10.8548 12.9883C12.1381 12.9883 15.7838 12.4293 15.7838 9.94432V8.48799C15.7913 8.4449 15.7913 8.40082 15.7838 8.35781L15.7928 0.430544ZM13.2398 2.3333C13.004 3.20071 12.9466 4.10694 13.0712 4.99715H8.62063C8.74518 4.10694 8.68783 3.20071 8.45204 2.3333H13.2398ZM8.4528 5.75826H13.239C13.5145 6.6684 13.9963 7.50266 14.647 8.19607C13.3952 8.4844 12.1251 8.68707 10.8457 8.80265C9.56575 8.68707 8.29522 8.4844 7.04286 8.19607C7.69418 7.5028 8.17668 6.66854 8.4528 5.75826ZM10.8563 12.2277C10.026 12.2277 6.6703 11.8216 6.6703 9.94432V8.89632C7.65707 9.10707 9.92325 9.56374 10.8457 9.56374C11.7682 9.56374 14.0332 9.10707 15.0227 8.89549V9.94432C15.0227 11.8216 11.6829 12.2277 10.8563 12.2277Z" fill="#333333"/>
<path d="M11.5974 10.3248H10.0949C9.99402 10.3248 9.89719 10.3649 9.82586 10.4363C9.75444 10.5076 9.71436 10.6045 9.71436 10.7054C9.71436 10.8063 9.75444 10.9031 9.82586 10.9745C9.89719 11.0458 9.99402 11.086 10.0949 11.086H11.5974C11.6983 11.086 11.795 11.0458 11.8664 10.9745C11.9378 10.9031 11.9779 10.8063 11.9779 10.7054C11.9779 10.6045 11.9378 10.5076 11.8664 10.4363C11.795 10.3649 11.6983 10.3248 11.5974 10.3248Z" fill="#333333"/>
<path d="M7.49414 16.163C7.49414 16.0621 7.53422 15.9652 7.60556 15.8939C7.67692 15.8226 7.7737 15.7825 7.87461 15.7825C7.97552 15.7825 8.07229 15.8226 8.14366 15.8939C8.85793 16.6066 9.82576 17.0068 10.8348 17.0068C11.8438 17.0068 12.8115 16.6066 13.5258 15.8939C13.5976 15.8246 13.6937 15.7862 13.7935 15.7871C13.8933 15.788 13.9887 15.828 14.0593 15.8986C14.1298 15.9691 14.1698 16.0646 14.1707 16.1643C14.1716 16.2641 14.1332 16.3602 14.0639 16.432C13.2068 17.2872 12.0455 17.7674 10.8348 17.7674C9.62401 17.7674 8.46266 17.2872 7.60556 16.432C7.53422 16.3607 7.49414 16.2638 7.49414 16.163Z" fill="#333333"/>
<path d="M9.10889 14.5487C9.10889 14.4477 9.14896 14.351 9.22033 14.2796C9.29166 14.2082 9.38841 14.1682 9.48933 14.1682C9.59024 14.1682 9.68708 14.2082 9.75841 14.2796C10.0442 14.5646 10.4312 14.7246 10.8348 14.7246C11.2383 14.7246 11.6254 14.5646 11.9112 14.2796C11.983 14.2103 12.0791 14.1719 12.1788 14.1728C12.2787 14.1737 12.3741 14.2137 12.4447 14.2842C12.5152 14.3548 12.5552 14.4502 12.5561 14.55C12.557 14.6498 12.5186 14.7459 12.4492 14.8177C12.0207 15.2452 11.4401 15.4852 10.8348 15.4852C10.2295 15.4852 9.64891 15.2452 9.22033 14.8177C9.14896 14.7463 9.10889 14.6496 9.10889 14.5487Z" fill="#333333"/>
</g>
</g>
</g>
<defs>
<clipPath id="clip0_72_1949">
<rect width="20" height="20" fill="white" transform="translate(0.879883 0.0499878)"/>
</clipPath>
<clipPath id="clip1_72_1949">
<rect width="20" height="20" fill="white" transform="translate(0.879883 0.0499878)"/>
</clipPath>
<clipPath id="clip2_72_1949">
<rect width="20" height="20" fill="white" transform="translate(0.879883 0.0499878)"/>
</clipPath>
</defs>
</svg>
