<svg width="20" height="22" viewBox="0 0 20 22" fill="none" xmlns="http://www.w3.org/2000/svg">
<path fill-rule="evenodd" clip-rule="evenodd" d="M13.8801 3.97999C13.8801 3.28261 14.123 2.607 14.5671 2.06931C15.0112 1.53161 15.6287 1.16544 16.3135 1.03373C16.9984 0.902022 17.7077 1.01301 18.3195 1.34762C18.9314 1.68223 19.4076 2.21955 19.6662 2.8672C19.9248 3.51485 19.9497 4.23237 19.7366 4.89639C19.5236 5.56042 19.0858 6.12947 18.4986 6.5057C17.9114 6.88193 17.2115 7.04185 16.5192 6.95795C15.8269 6.87406 15.1854 6.55159 14.7051 6.04599L6.28412 10.725C6.41277 11.2201 6.41277 11.7399 6.28412 12.235L14.7051 16.914C15.2084 16.3849 15.8873 16.0575 16.6147 15.9932C17.3421 15.9289 18.0679 16.1321 18.6562 16.5647C19.2445 16.9973 19.6548 17.6296 19.8102 18.3431C19.9656 19.0566 19.8554 19.8022 19.5003 20.4403C19.1453 21.0784 18.5696 21.565 17.8814 21.8091C17.1932 22.0531 16.4396 22.0377 15.7618 21.7658C15.0841 21.4939 14.5289 20.9841 14.2001 20.3321C13.8714 19.6801 13.7917 18.9305 13.9761 18.224L5.55512 13.546C5.14197 13.981 4.60789 14.2821 4.02186 14.4105C3.43584 14.5389 2.82478 14.4886 2.26761 14.2662C1.71044 14.0438 1.23276 13.6594 0.896255 13.1627C0.55975 12.6661 0.379883 12.0799 0.379883 11.48C0.379883 10.8801 0.55975 10.2939 0.896255 9.79725C1.23276 9.30059 1.71044 8.91623 2.26761 8.6938C2.82478 8.47137 3.43584 8.4211 4.02186 8.54948C4.60789 8.67786 5.14197 8.979 5.55512 9.41399L13.9761 4.73499C13.9122 4.48842 13.8799 4.23471 13.8801 3.97999Z" fill="#383838"/>
</svg>
