<svg width="24" height="24" viewBox="0 0 24 24" fill="none" xmlns="http://www.w3.org/2000/svg">
<path d="M5.49704 7.21152L4 7.65386L4.22349 8.71196L5.49704 8.33617V15.8187C5.49718 16.5747 5.55016 17.3294 5.65543 18.0751L6.1232 21.3918C6.22402 22.1216 6.54178 22.7851 7.01944 23.2631C7.49709 23.7411 8.10336 24.0024 8.7294 24H14.2706C14.8966 24.0024 15.5028 23.7412 15.9804 23.2633C16.4581 22.7854 16.7759 22.1221 16.8768 21.3923L17.3446 18.0751C17.4498 17.3294 17.5028 16.5747 17.503 15.8187V8.33617L18.7765 8.71196L19 7.65386L17.503 7.21152V5.23766C17.5024 4.54319 17.3617 3.85887 17.0926 3.2414C16.8235 2.62393 16.4338 2.09109 15.9556 1.687C14.6554 0.589826 13.0974 0 11.4995 0C9.90163 0 8.34367 0.589826 7.0435 1.687C6.56557 2.0913 6.17602 2.62422 5.9071 3.24166C5.63818 3.8591 5.49762 4.54331 5.49704 5.23766V7.21152ZM7.86082 8.52652L8.10972 8.40871C10.2871 7.38551 12.7134 7.38551 14.8907 8.40871L15.1392 8.52598L14.8187 10.8009C12.6321 10.2359 10.3679 10.2359 8.18129 10.8009L7.86082 8.52652ZM15.6559 11.5007L16.0655 8.59634L16.5794 8.39453V15.8187C16.5763 16.3573 16.5441 16.8951 16.4829 17.4288L15.6559 16.6472V11.5007ZM14.7324 11.8917V16.4825L14.5791 16.5278C12.5488 17.0354 10.4512 17.0354 8.42095 16.5278L8.26764 16.4836V11.8917C10.3955 11.3212 12.6045 11.3212 14.7324 11.8917ZM8.26764 17.6055C10.3995 18.1321 12.6005 18.1321 14.7324 17.6055V18.5458C14.7324 18.8351 14.6351 19.1126 14.4619 19.3172C14.2887 19.5217 14.0538 19.6367 13.8088 19.6367H9.19117C8.94624 19.6367 8.71133 19.5217 8.53814 19.3172C8.36494 19.1126 8.26764 18.8351 8.26764 18.5458V17.6055ZM6.93452 8.59634L7.34411 11.5007V16.6472L6.51709 17.4288C6.45594 16.8951 6.4237 16.3573 6.42058 15.8187V8.39453L6.93452 8.59634ZM15.9657 21.2129C15.8999 21.6874 15.6931 22.1188 15.3825 22.4296C15.0719 22.7404 14.6777 22.9104 14.2706 22.9091H8.7294C8.3223 22.9104 7.92811 22.7404 7.61748 22.4296C7.30686 22.1188 7.1001 21.6874 7.03426 21.2129L6.67639 18.6756L7.34411 18.0446V18.5458C7.34411 19.1244 7.53871 19.6793 7.8851 20.0885C8.23149 20.4976 8.7013 20.7275 9.19117 20.7275H13.8088C14.2987 20.7275 14.7685 20.4976 15.1149 20.0885C15.4613 19.6793 15.6559 19.1244 15.6559 18.5458V18.0446L16.3236 18.6756L15.9657 21.2129ZM16.0179 3.27416H15.1941C15.0717 3.27416 14.9542 3.2167 14.8676 3.11442C14.781 3.01213 14.7324 2.8734 14.7324 2.72875V2.07425C14.9695 2.22553 15.1988 2.39345 15.419 2.57712C15.6474 2.77221 15.8494 3.00725 16.0179 3.27416ZM13.8088 1.57792V2.72875C13.8088 3.16271 13.9548 3.5789 14.2146 3.88575C14.4744 4.19261 14.8267 4.365 15.1941 4.365H16.4746C16.5429 4.64893 16.5781 4.94251 16.5794 5.23766V7.24261L15.6702 7.60041L15.2334 7.39424C12.836 6.26768 10.1645 6.26768 7.76709 7.39424L7.32979 7.60041L6.42058 7.24425V5.23766C6.42186 4.94251 6.45712 4.64893 6.5254 4.365H7.80587C8.17328 4.365 8.52563 4.19261 8.78543 3.88575C9.04522 3.5789 9.19117 3.16271 9.19117 2.72875V1.57792C10.6816 0.930696 12.3184 0.930696 13.8088 1.57792ZM7.58099 2.57603C7.80119 2.39274 8.03048 2.22517 8.26764 2.07425V2.72875C8.26764 2.8734 8.21899 3.01213 8.13239 3.11442C8.04579 3.2167 7.92834 3.27416 7.80587 3.27416H6.98208C7.15028 3.0066 7.35227 2.77115 7.58099 2.57603Z" fill="#333333"/>
<rect x="9" y="13" width="5" height="2" rx="1" fill="#333333"/>
</svg>
