<svg width="16" height="17" viewBox="0 0 16 17" fill="none" xmlns="http://www.w3.org/2000/svg">
<path fill-rule="evenodd" clip-rule="evenodd" d="M3.3335 7.63664C3.3335 9.75112 4.82338 12.1579 7.77407 14.8816C7.90176 14.9995 8.09857 14.9995 8.22626 14.8816C11.1769 12.1579 12.6668 9.75112 12.6668 7.63664C12.6668 5.05931 10.5775 2.96997 8.00016 2.96997C5.42283 2.96997 3.3335 5.05931 3.3335 7.63664ZM10.0002 7.63664C10.0002 8.7412 9.10473 9.63664 8.00016 9.63664C6.89559 9.63664 6.00016 8.7412 6.00016 7.63664C6.00016 6.53207 6.89559 5.63663 8.00016 5.63663C9.10473 5.63663 10.0002 6.53207 10.0002 7.63664Z" fill="#4375FA"/>
</svg>
