<svg width="21" height="21" viewBox="0 0 21 21" fill="none" xmlns="http://www.w3.org/2000/svg">
<g clip-path="url(#clip0_89_3936)">
<path fill-rule="evenodd" clip-rule="evenodd" d="M4.52627 4C4.02104 4.01363 3.54108 4.2239 3.18855 4.58607C2.83602 4.94823 2.63876 5.43369 2.63876 5.9391C2.63876 6.44451 2.83602 6.92997 3.18855 7.29213C3.54108 7.6543 4.02104 7.86458 4.52627 7.8782C5.0315 7.86458 5.51146 7.6543 5.86399 7.29213C6.21652 6.92997 6.41378 6.44451 6.41378 5.9391C6.41378 5.43369 6.21652 4.94823 5.86399 4.58607C5.51146 4.2239 5.0315 4.01363 4.52627 4ZM4.52627 5.05769C4.76004 5.05769 4.98423 5.15055 5.14952 5.31585C5.31482 5.48115 5.40768 5.70534 5.40768 5.9391C5.40768 6.17287 5.31482 6.39706 5.14952 6.56235C4.98423 6.72765 4.76004 6.82051 4.52627 6.82051C4.29251 6.82051 4.06832 6.72765 3.90302 6.56235C3.73773 6.39706 3.64486 6.17287 3.64486 5.9391C3.64486 5.70534 3.73773 5.48115 3.90302 5.31585C4.06832 5.15055 4.29251 5.05769 4.52627 5.05769ZM4.52627 13.8718C4.02104 13.8854 3.54108 14.0957 3.18855 14.4579C2.83602 14.82 2.63876 15.3055 2.63876 15.8109C2.63876 16.3163 2.83602 16.8018 3.18855 17.1639C3.54108 17.5261 4.02104 17.7364 4.52627 17.75C5.0315 17.7364 5.51146 17.5261 5.86399 17.1639C6.21652 16.8018 6.41378 16.3163 6.41378 15.8109C6.41378 15.3055 6.21652 14.82 5.86399 14.4579C5.51146 14.0957 5.0315 13.8854 4.52627 13.8718ZM4.52627 14.9295C4.64202 14.9295 4.75664 14.9523 4.86357 14.9966C4.97051 15.0409 5.06768 15.1058 5.14952 15.1876C5.23137 15.2695 5.29629 15.3667 5.34059 15.4736C5.38488 15.5805 5.40768 15.6951 5.40768 15.8109C5.40768 15.9266 5.38488 16.0413 5.34059 16.1482C5.29629 16.2551 5.23137 16.3523 5.14952 16.4341C5.06768 16.516 4.97051 16.5809 4.86357 16.6252C4.75664 16.6695 4.64202 16.6923 4.52627 16.6923C4.29251 16.6923 4.06832 16.5994 3.90302 16.4341C3.73773 16.2688 3.64486 16.0447 3.64486 15.8109C3.64486 15.5771 3.73773 15.3529 3.90302 15.1876C4.06832 15.0223 4.29251 14.9295 4.52627 14.9295ZM10.1673 4C9.66207 4.01363 9.18211 4.2239 8.82958 4.58607C8.47705 4.94823 8.27979 5.43369 8.27979 5.9391C8.27979 6.44451 8.47705 6.92997 8.82958 7.29213C9.18211 7.6543 9.66207 7.86458 10.1673 7.8782C10.6725 7.86458 11.1525 7.6543 11.505 7.29213C11.8576 6.92997 12.0548 6.44451 12.0548 5.9391C12.0548 5.43369 11.8576 4.94823 11.505 4.58607C11.1525 4.2239 10.6725 4.01363 10.1673 4ZM10.1673 5.05769C10.4011 5.05769 10.6253 5.15055 10.7906 5.31585C10.9559 5.48115 11.0487 5.70534 11.0487 5.9391C11.0487 6.17287 10.9559 6.39706 10.7906 6.56235C10.6253 6.72765 10.4011 6.82051 10.1673 6.82051C9.93353 6.82051 9.70934 6.72765 9.54404 6.56235C9.37875 6.39706 9.28588 6.17287 9.28588 5.9391C9.28588 5.70534 9.37875 5.48115 9.54404 5.31585C9.70934 5.15055 9.93353 5.05769 10.1673 5.05769ZM10.1673 13.8718C9.66207 13.8854 9.18211 14.0957 8.82958 14.4579C8.47705 14.82 8.27979 15.3055 8.27979 15.8109C8.27979 16.3163 8.47705 16.8018 8.82958 17.1639C9.18211 17.5261 9.66207 17.7364 10.1673 17.75C10.6725 17.7364 11.1525 17.5261 11.505 17.1639C11.8576 16.8018 12.0548 16.3163 12.0548 15.8109C12.0548 15.3055 11.8576 14.82 11.505 14.4579C11.1525 14.0957 10.6725 13.8854 10.1673 13.8718ZM10.1673 14.9295C10.2831 14.9295 10.3977 14.9523 10.5046 14.9966C10.6115 15.0409 10.7087 15.1058 10.7906 15.1876C10.8724 15.2695 10.9373 15.3667 10.9816 15.4736C11.0259 15.5805 11.0487 15.6951 11.0487 15.8109C11.0487 15.9266 11.0259 16.0413 10.9816 16.1482C10.9373 16.2551 10.8724 16.3523 10.7906 16.4341C10.7087 16.516 10.6115 16.5809 10.5046 16.6252C10.3977 16.6695 10.2831 16.6923 10.1673 16.6923C9.93353 16.6923 9.70934 16.5994 9.54404 16.4341C9.37875 16.2688 9.28588 16.0447 9.28588 15.8109C9.28588 15.5771 9.37875 15.3529 9.54404 15.1876C9.70934 15.0223 9.93353 14.9295 10.1673 14.9295ZM15.8083 4C15.3031 4.01363 14.8231 4.2239 14.4706 4.58607C14.1181 4.94823 13.9208 5.43369 13.9208 5.9391C13.9208 6.44451 14.1181 6.92997 14.4706 7.29213C14.8231 7.6543 15.3031 7.86458 15.8083 7.8782C16.3136 7.86458 16.7935 7.6543 17.146 7.29213C17.4986 6.92997 17.6958 6.44451 17.6958 5.9391C17.6958 5.43369 17.4986 4.94823 17.146 4.58607C16.7935 4.2239 16.3136 4.01363 15.8083 4ZM15.8083 5.05769C16.0421 5.05769 16.2663 5.15055 16.4316 5.31585C16.5969 5.48115 16.6897 5.70534 16.6897 5.9391C16.6897 6.17287 16.5969 6.39706 16.4316 6.56235C16.2663 6.72765 16.0421 6.82051 15.8083 6.82051C15.5746 6.82051 15.3504 6.72765 15.1851 6.56235C15.0198 6.39706 14.9269 6.17287 14.9269 5.9391C14.9269 5.70534 15.0198 5.48115 15.1851 5.31585C15.3504 5.15055 15.5746 5.05769 15.8083 5.05769ZM15.8083 13.8718C15.3031 13.8854 14.8231 14.0957 14.4706 14.4579C14.1181 14.82 13.9208 15.3055 13.9208 15.8109C13.9208 16.3163 14.1181 16.8018 14.4706 17.1639C14.8231 17.5261 15.3031 17.7364 15.8083 17.75C16.3136 17.7364 16.7935 17.5261 17.146 17.1639C17.4986 16.8018 17.6958 16.3163 17.6958 15.8109C17.6958 15.3055 17.4986 14.82 17.146 14.4579C16.7935 14.0957 16.3136 13.8854 15.8083 13.8718ZM15.8083 14.9295C15.9241 14.9295 16.0387 14.9523 16.1456 14.9966C16.2526 15.0409 16.3497 15.1058 16.4316 15.1876C16.5134 15.2695 16.5783 15.3667 16.6226 15.4736C16.6669 15.5805 16.6897 15.6951 16.6897 15.8109C16.6897 15.9266 16.6669 16.0413 16.6226 16.1482C16.5783 16.2551 16.5134 16.3523 16.4316 16.4341C16.3497 16.516 16.2526 16.5809 16.1456 16.6252C16.0387 16.6695 15.9241 16.6923 15.8083 16.6923C15.5746 16.6923 15.3504 16.5994 15.1851 16.4341C15.0198 16.2688 14.9269 16.0447 14.9269 15.8109C14.9269 15.5771 15.0198 15.3529 15.1851 15.1876C15.3504 15.0223 15.5746 14.9295 15.8083 14.9295Z" fill="#04ABFF"/>
<path fill-rule="evenodd" clip-rule="evenodd" d="M3.99741 7.34934V14.4006C3.99741 14.5409 4.05312 14.6754 4.1523 14.7746C4.25148 14.8737 4.38599 14.9295 4.52625 14.9295C4.66651 14.9295 4.80103 14.8737 4.9002 14.7746C4.99938 14.6754 5.0551 14.5409 5.0551 14.4006V7.34934C5.0551 7.20908 4.99938 7.07457 4.9002 6.97539C4.80103 6.87621 4.66651 6.8205 4.52625 6.8205C4.38599 6.8205 4.25148 6.87621 4.1523 6.97539C4.05312 7.07457 3.99741 7.20908 3.99741 7.34934ZM9.63843 7.34934V14.4006C9.63843 14.5409 9.69415 14.6754 9.79332 14.7746C9.8925 14.8737 10.027 14.9295 10.1673 14.9295C10.3075 14.9295 10.4421 14.8737 10.5412 14.7746C10.6404 14.6754 10.6961 14.5409 10.6961 14.4006V7.34934C10.6961 7.20908 10.6404 7.07457 10.5412 6.97539C10.4421 6.87621 10.3075 6.8205 10.1673 6.8205C10.027 6.8205 9.8925 6.87621 9.79332 6.97539C9.69415 7.07457 9.63843 7.20908 9.63843 7.34934Z" fill="#04ABFF"/>
<path fill-rule="evenodd" clip-rule="evenodd" d="M15.2795 7.34934V10.1698C15.2795 10.2166 15.2609 10.2614 15.2278 10.2945C15.1948 10.3276 15.1499 10.3461 15.1032 10.3461H4.52625C4.38599 10.3461 4.25148 10.4018 4.1523 10.501C4.05312 10.6002 3.99741 10.7347 3.99741 10.875C3.99741 11.0152 4.05312 11.1498 4.1523 11.2489C4.25148 11.3481 4.38599 11.4038 4.52625 11.4038H15.1032C15.4304 11.4038 15.7443 11.2738 15.9757 11.0424C16.2071 10.811 16.3372 10.4971 16.3372 10.1698V7.34934C16.3372 7.20908 16.2814 7.07457 16.1823 6.97539C16.0831 6.87621 15.9486 6.8205 15.8083 6.8205C15.668 6.8205 15.5335 6.87621 15.4344 6.97539C15.3352 7.07457 15.2795 7.20908 15.2795 7.34934Z" fill="#04ABFF"/>
</g>
<defs>
<clipPath id="clip0_89_3936">
<rect width="20" height="20" fill="white" transform="translate(0.269997 0.75)"/>
</clipPath>
</defs>
</svg>
