<svg width="24" height="24" viewBox="0 0 24 24" fill="none" xmlns="http://www.w3.org/2000/svg">
<path d="M3.19992 13.9501H8.79993C9.24159 13.9497 9.59948 13.5918 9.59995 13.1501V7.15011C9.59953 6.70846 9.24159 6.35057 8.79993 6.3501H3.19992C2.75826 6.35052 2.40037 6.70846 2.3999 7.15011V13.1501C2.40032 13.5918 2.75826 13.9497 3.19992 13.9501ZM6.79992 13.1502H5.19993V12.3501C5.20007 12.2441 5.24225 12.1424 5.31724 12.0675C5.39222 11.9925 5.49388 11.9503 5.59992 11.9502H6.39993C6.50597 11.9503 6.60763 11.9925 6.68262 12.0675C6.7576 12.1424 6.79978 12.2441 6.79992 12.3501V13.1502ZM3.19992 7.15016H8.79993L8.8005 13.1502H7.59993V12.3501C7.59923 11.6877 7.06237 11.1508 6.39993 11.1501H5.59992C4.93748 11.1508 4.40062 11.6877 4.39992 12.3501V13.1502H3.19992V7.15016ZM8.3999 14.7501H3.5999C3.15825 14.7506 2.80036 15.1085 2.79989 15.5502V19.1502C2.80031 19.5918 3.15825 19.9497 3.5999 19.9502H8.3999C8.84156 19.9498 9.19945 19.5918 9.19992 19.1502V15.5502C9.19945 15.1085 8.84156 14.7506 8.3999 14.7501ZM3.5999 19.1502V15.5502H8.3999L8.40047 19.1502H3.5999Z" fill="black"/>
<path d="M7.19989 16.3501H4.79989C4.6938 16.3501 4.59207 16.3922 4.51706 16.4673C4.44204 16.5423 4.3999 16.644 4.3999 16.7501C4.3999 16.8562 4.44204 16.9579 4.51706 17.0329C4.59207 17.1079 4.6938 17.1501 4.79989 17.1501H7.19989C7.30597 17.1501 7.40771 17.1079 7.48272 17.0329C7.55773 16.9579 7.59987 16.8562 7.59987 16.7501C7.59987 16.644 7.55773 16.5423 7.48272 16.4673C7.40771 16.3922 7.30597 16.3501 7.19989 16.3501ZM7.19989 17.5501H4.79989C4.57897 17.5501 4.3999 17.7292 4.3999 17.9501C4.3999 18.171 4.57897 18.3501 4.79989 18.3501H7.19989C7.42081 18.3501 7.59987 18.171 7.59987 17.9501C7.59987 17.7292 7.42081 17.5501 7.19989 17.5501Z" fill="black"/>
<path d="M24 4.04623C24.0002 3.78948 23.9384 3.53648 23.8199 3.30873C23.7013 3.08097 23.5296 2.88519 23.3192 2.73802C23.1088 2.59085 22.866 2.49664 22.6114 2.46339C22.3568 2.43013 22.098 2.45883 21.8569 2.54702C21.8518 2.54899 21.8462 2.54951 21.8412 2.55167C21.6265 2.63017 21.4313 2.75425 21.2692 2.91537L19.3173 4.8672L16.9173 7.2672L14.5173 9.6672L11.2259 12.9586C11.2173 12.9634 11.2085 12.9678 11.2 12.9727V5.47643C11.4333 5.39425 11.6355 5.24186 11.7787 5.04019C11.9219 4.83853 11.9992 4.59747 12 4.35012V3.15012C12 3.04404 11.9579 2.9423 11.8828 2.86729C11.8078 2.79228 11.7061 2.75013 11.6 2.75013H0.399984C0.293902 2.75013 0.192164 2.79228 0.117153 2.86729C0.0421411 2.9423 0 3.04404 0 3.15012L0 4.35012C0.000761185 4.59747 0.0780703 4.83853 0.221313 5.04018C0.364555 5.24184 0.566708 5.39421 0.800016 5.47638V20.7501H0.399984C0.179062 20.7501 0 20.9292 0 21.1501C0 21.371 0.179062 21.5501 0.399984 21.5501H23.2C23.3061 21.5501 23.4078 21.508 23.4828 21.433C23.5578 21.3579 23.6 21.2562 23.6 21.1501C23.6 21.044 23.5578 20.9423 23.4828 20.8673C23.4078 20.7923 23.3061 20.7501 23.2 20.7501H13.6V15.1077L15.0827 13.625L17.4827 11.225L19.8827 8.82504L22.2827 6.42504L23.5308 5.1769C23.83 4.8765 23.9986 4.4702 24 4.04623ZM10.4 20.7501H1.59998V5.55012H10.4L10.4 20.7501ZM10.8 4.75015H1.2C1.09396 4.75001 0.992301 4.70783 0.917319 4.63285C0.842337 4.55786 0.800152 4.45621 0.800016 4.35017V3.55015H11.2V4.35017C11.1999 4.45621 11.1577 4.55786 11.0827 4.63284C11.0077 4.70781 10.906 4.75 10.8 4.75015ZM12.8 20.7501H11.2V14.3502C11.2 13.9083 11.5582 13.5501 12 13.5501C12.4419 13.5501 12.8001 13.9083 12.8001 14.3502L12.8 20.7501ZM14.4 13.1765L13.5629 14.0136C13.5025 13.7392 13.3708 13.4857 13.1813 13.2784C12.9917 13.0711 12.7508 12.9174 12.483 12.8328L14.4 10.9158L14.4 13.1765ZM16.8 10.7765L15.2 12.3765V10.1157L16.8 8.51576V10.7765ZM19.2 8.37649L17.6 9.97648V7.71574L19.2 6.11576V8.37649ZM21.6 5.97649L20 7.57648V5.31574L21.6 3.71576V5.97649ZM22.9652 4.61126L22.4 5.17648V3.2472C22.505 3.24701 22.609 3.26757 22.706 3.3077C22.803 3.34782 22.8911 3.40672 22.9652 3.48101C23.0396 3.55511 23.0987 3.64318 23.139 3.74016C23.1793 3.83714 23.2 3.94112 23.2 4.04613C23.2 4.15115 23.1793 4.25513 23.139 4.35211C23.0987 4.44909 23.0396 4.53716 22.9652 4.61126Z" fill="black"/>
<path d="M12.3681 14.598C12.3592 14.5726 12.3471 14.5484 12.3319 14.5261C12.3161 14.506 12.3001 14.4861 12.2841 14.4662C12.2278 14.4106 12.1564 14.3729 12.0788 14.358C12.0011 14.343 11.9208 14.3513 11.8479 14.382C11.799 14.4014 11.7542 14.4299 11.7161 14.4662C11.7001 14.4861 11.6841 14.506 11.668 14.5261C11.6529 14.5484 11.6407 14.5726 11.6319 14.598C11.6204 14.6207 11.6123 14.645 11.6081 14.67C11.6034 14.6965 11.6007 14.7233 11.6001 14.7501C11.6007 14.8024 11.6115 14.854 11.6319 14.9021C11.6513 14.9511 11.6799 14.9959 11.7161 15.0342C11.755 15.0694 11.7995 15.0978 11.8479 15.1182C11.8961 15.1387 11.9478 15.1496 12.0001 15.1502C12.0269 15.1494 12.0536 15.1468 12.08 15.1422C12.105 15.1377 12.1293 15.1296 12.152 15.1181C12.1775 15.1093 12.2018 15.0972 12.2241 15.082L12.2841 15.0341C12.3201 14.9958 12.3487 14.951 12.3681 14.9021C12.3885 14.854 12.3994 14.8024 12.4001 14.7501C12.3994 14.7233 12.3967 14.6965 12.3921 14.67C12.3876 14.645 12.3795 14.6207 12.3681 14.598Z" fill="black"/>
</svg>
