<svg width="21" height="21" viewBox="0 0 21 21" fill="none" xmlns="http://www.w3.org/2000/svg">
<g clip-path="url(#clip0_51_133)">
<g clip-path="url(#clip1_51_133)">
<path fill-rule="evenodd" clip-rule="evenodd" d="M5.25331 3.48C4.10273 3.48 3.16998 4.41274 3.16998 5.56332V10.5633C3.16998 10.6738 3.21388 10.7798 3.29203 10.858L10.2111 17.7771C11.1549 18.7209 12.6851 18.7209 13.6288 17.7771L17.4671 13.9388C18.4108 12.9951 18.4108 11.4649 17.4671 10.5212L10.5479 3.60204C10.4698 3.5239 10.3638 3.48 10.2533 3.48H5.25331ZM9.00331 7.64667C9.00331 6.72618 8.25713 5.98 7.33665 5.98C6.41617 5.98 5.66998 6.72618 5.66998 7.64667C5.66998 8.56714 6.41617 9.31332 7.33665 9.31332C8.25713 9.31332 9.00331 8.56714 9.00331 7.64667Z" fill="#04ABFF"/>
</g>
</g>
<defs>
<clipPath id="clip0_51_133">
<rect width="20" height="20" fill="white" transform="translate(0.669983 0.979996)"/>
</clipPath>
<clipPath id="clip1_51_133">
<rect width="20" height="20" fill="white" transform="translate(0.669983 0.979996)"/>
</clipPath>
</defs>
</svg>
