<svg width="16" height="17" viewBox="0 0 16 17" fill="none" xmlns="http://www.w3.org/2000/svg">
<g clip-path="url(#clip0_89_3915)">
<g clip-path="url(#clip1_89_3915)">
<path d="M12.355 5.89497C12.2988 5.83875 12.2301 5.79672 12.1544 5.77237C12.0788 5.74802 11.9984 5.74206 11.92 5.75497C11.8422 5.76798 11.7685 5.79923 11.7051 5.84616C11.6416 5.89308 11.5902 5.95436 11.555 6.02497C11.4021 6.28959 11.2155 6.53328 11 6.74997C10.9492 5.43548 10.4679 4.1741 9.63 3.15997C9.16124 2.67866 8.59454 2.30367 7.96826 2.06041C7.34198 1.81714 6.67075 1.71128 6 1.74997C5.90955 1.75022 5.82086 1.77499 5.74337 1.82166C5.66589 1.86832 5.60251 1.93513 5.56 2.01497C5.51985 2.09316 5.50103 2.18055 5.50542 2.26833C5.5098 2.35611 5.53726 2.44118 5.585 2.51497C5.655 2.61997 7.175 4.95997 5.44 7.06497C5 6.71997 4.5 6.17497 4.5 5.74997C4.49934 5.63801 4.46111 5.52952 4.39146 5.44186C4.3218 5.35421 4.22474 5.29247 4.11582 5.26653C4.0069 5.2406 3.89243 5.25198 3.79075 5.29883C3.68906 5.34569 3.60605 5.42533 3.555 5.52497C2.87203 7.00727 2.5124 8.61796 2.5 10.25C2.5 14.56 5.705 15.68 5.84 15.75C5.9369 15.7829 6.04157 15.7853 6.13988 15.7568C6.23819 15.7284 6.32539 15.6704 6.38972 15.5908C6.45406 15.5113 6.49241 15.4138 6.49961 15.3117C6.50682 15.2097 6.48252 15.1078 6.43 15.02C5.95567 14.1683 5.76809 13.1865 5.895 12.22C6.203 12.8173 6.66141 13.3239 7.225 13.69C7.33103 13.7603 7.45987 13.7875 7.58527 13.7661C7.71068 13.7448 7.82323 13.6764 7.9 13.575C8.59142 12.5633 8.91928 11.3471 8.83 10.125C9.355 10.93 9.755 12.435 9.02 15.125C9.00101 15.1985 8.99902 15.2754 9.0142 15.3499C9.02937 15.4243 9.0613 15.4943 9.10757 15.5545C9.15384 15.6148 9.21323 15.6637 9.28122 15.6976C9.34922 15.7314 9.42404 15.7493 9.5 15.75C9.54471 15.7573 9.59029 15.7573 9.635 15.75C10.782 15.3659 11.776 14.6249 12.4715 13.6352C13.1669 12.6455 13.5273 11.4593 13.5 10.25C13.5 7.13497 12.47 6.01497 12.355 5.89497Z" fill="#EB6957"/>
</g>
</g>
<defs>
<clipPath id="clip0_89_3915">
<rect width="16" height="16" fill="white" transform="translate(0 0.75)"/>
</clipPath>
<clipPath id="clip1_89_3915">
<rect width="16" height="16" fill="white" transform="translate(0 0.75)"/>
</clipPath>
</defs>
</svg>
