<svg width="24" height="24" viewBox="0 0 24 24" fill="none" xmlns="http://www.w3.org/2000/svg">
<path d="M17 5.99992H16.5V1.99994C16.4996 1.60225 16.3414 1.22097 16.0602 0.939758C15.779 0.658548 15.3977 0.500373 15 0.499939H9.00002C8.60232 0.500373 8.22105 0.658548 7.93984 0.939758C7.65862 1.22097 7.50045 1.60225 7.50002 1.99994V5.99992H7C6.60231 6.00036 6.22103 6.15853 5.93982 6.43974C5.65861 6.72095 5.50043 7.10223 5.5 7.49992V16.7983C5.50094 17.3659 5.69405 17.9165 6.04787 18.3603L7.00928 19.5619C7.24299 19.8553 7.53995 20.092 7.87799 20.2544C8.21603 20.4168 8.5864 20.5007 8.96144 20.4999H9.00002V22.4999C9.00036 22.765 9.10583 23.0192 9.29329 23.2066C9.48075 23.3941 9.73489 23.4996 10 23.4999H14C14.2651 23.4996 14.5193 23.3941 14.7067 23.2066C14.8942 23.0192 14.9997 22.765 15 22.4999V20.4999H15.0386C15.4137 20.5007 15.7841 20.4167 16.1222 20.2543C16.4603 20.0919 16.7574 19.8552 16.9912 19.5619L17.9522 18.3603C18.306 17.9165 18.4991 17.3659 18.5 16.7983V7.49992C18.4996 7.10223 18.3414 6.72095 18.0602 6.43974C17.779 6.15853 17.3977 6.00036 17 5.99992ZM8.5 1.99994C8.50014 1.86737 8.55286 1.74027 8.6466 1.64653C8.74034 1.55278 8.86745 1.50006 9.00002 1.49992H15C15.1326 1.50006 15.2597 1.55278 15.3534 1.64653C15.4472 1.74027 15.4999 1.86737 15.5 1.99994V5.99992H8.5V1.99994ZM14 22.4999H10V20.4999H14V22.4999ZM17.5 16.7983C17.4996 17.1389 17.3836 17.4692 17.1709 17.7353L16.2105 18.937C16.0702 19.113 15.8919 19.2551 15.689 19.3526C15.486 19.45 15.2637 19.5004 15.0386 19.4999H8.96144C8.73638 19.5005 8.51411 19.4501 8.31126 19.3526C8.10842 19.2551 7.93024 19.113 7.79008 18.937L6.82914 17.7353C6.61645 17.4692 6.50041 17.1389 6.50003 16.7983V7.49992C6.50016 7.36736 6.55287 7.24026 6.6466 7.14651C6.74034 7.05277 6.86743 7.00004 7 6.99991H17C17.1326 7.00004 17.2597 7.05277 17.3534 7.14651C17.4472 7.24026 17.4999 7.36736 17.5 7.49992V16.7983Z" fill="#333333"/>
<path d="M11 2.49988H10C9.8674 2.49988 9.74022 2.55256 9.64645 2.64633C9.55268 2.7401 9.5 2.86728 9.5 2.99989C9.5 3.13251 9.55268 3.25969 9.64645 3.35346C9.74022 3.44723 9.8674 3.49991 10 3.49991H11C11.1327 3.49991 11.2598 3.44723 11.3536 3.35346C11.4474 3.25969 11.5001 3.13251 11.5001 2.99989C11.5001 2.86728 11.4474 2.7401 11.3536 2.64633C11.2598 2.55256 11.1327 2.49988 11 2.49988ZM14 2.49988H13C12.8674 2.49988 12.7402 2.55256 12.6465 2.64633C12.5527 2.7401 12.5 2.86728 12.5 2.99989C12.5 3.13251 12.5527 3.25969 12.6465 3.35346C12.7402 3.44723 12.8674 3.49991 13 3.49991H14C14.1327 3.49991 14.2598 3.44723 14.3536 3.35346C14.4474 3.25969 14.5001 3.13251 14.5001 2.99989C14.5001 2.86728 14.4474 2.7401 14.3536 2.64633C14.2598 2.55256 14.1327 2.49988 14 2.49988ZM14 9.99988C13.9344 9.99986 13.8694 10.0128 13.8087 10.0379C13.748 10.063 13.6929 10.0999 13.6464 10.1463C13.6 10.1927 13.5632 10.2478 13.5381 10.3085C13.5129 10.3692 13.5 10.4342 13.5 10.4999V12.2499L12.5 12.9999V8.99989C12.5 8.86728 12.4474 8.7401 12.3536 8.64633C12.2598 8.55256 12.1326 8.49988 12 8.49988C11.8674 8.49988 11.7402 8.55256 11.6465 8.64633C11.5527 8.7401 11.5 8.86728 11.5 8.99989V14L10.5 13.25V11.4999C10.4988 11.3681 10.4455 11.2422 10.3519 11.1494C10.2583 11.0567 10.1318 11.0047 10 11.0047C9.86827 11.0047 9.74182 11.0567 9.64819 11.1494C9.55456 11.2422 9.50132 11.3681 9.50005 11.4999V13.4999C9.50006 13.5775 9.51816 13.6541 9.55291 13.7235C9.58766 13.7929 9.63811 13.8533 9.70025 13.8998L11.5003 15.2498V17.5C11.5003 17.6326 11.5529 17.7598 11.6467 17.8536C11.7405 17.9474 11.8677 18 12.0003 18C12.1329 18 12.2601 17.9474 12.3538 17.8536C12.4476 17.7598 12.5003 17.6326 12.5003 17.5V14.2499L14.3003 12.8999C14.3624 12.8534 14.4129 12.793 14.4476 12.7236C14.4824 12.6542 14.5005 12.5776 14.5005 12.5V10.4999C14.5005 10.4342 14.4876 10.3691 14.4624 10.3084C14.4373 10.2477 14.4004 10.1926 14.3539 10.1461C14.3074 10.0997 14.2523 10.0629 14.1915 10.0378C14.1308 10.0127 14.0658 9.9998 14 9.99988Z" fill="#333333"/>
</svg>
