<svg width="21" height="21" viewBox="0 0 21 21" fill="none" xmlns="http://www.w3.org/2000/svg">
<g clip-path="url(#clip0_72_2084)">
<path d="M10.6601 2.42163C10.0543 2.42187 9.45445 2.54202 8.89523 2.77515C8.33601 3.00828 7.82844 3.34978 7.4018 3.77996C6.53504 4.64991 6.04686 5.82692 6.04346 7.05496C6.04346 10.2133 10.2101 14.8716 10.3518 15.0633C10.3934 15.1039 10.4412 15.1377 10.4935 15.1633C10.5512 15.1752 10.6107 15.1752 10.6685 15.1633C10.7234 15.1758 10.7803 15.1758 10.8352 15.1633C10.8899 15.1421 10.9385 15.1077 10.9768 15.0633C11.1518 14.8716 15.2769 10.2133 15.2769 7.05496C15.2766 5.82793 14.7913 4.65075 13.9269 3.77996C13.4987 3.34952 12.9897 3.00794 12.4291 2.77483C11.8685 2.54172 11.2673 2.42169 10.6601 2.42163Z" stroke="#04ABFF" stroke-width="1.5" stroke-linecap="round" stroke-linejoin="round"/>
<path d="M10.9014 8.67169C11.3273 8.59529 11.7069 8.35622 11.9597 8.00502C12.0875 7.83366 12.1799 7.63854 12.2314 7.43106C12.2829 7.22359 12.2925 7.00793 12.2597 6.79669C12.2255 6.5855 12.1497 6.3832 12.0367 6.20153C11.9236 6.01986 11.7757 5.86243 11.6014 5.73836C11.2537 5.48309 10.8206 5.37257 10.3931 5.43002C9.96713 5.50642 9.58761 5.7455 9.33476 6.09669C9.0803 6.44778 8.97267 6.88422 9.03475 7.31336C9.11315 7.73627 9.35204 8.11249 9.70143 8.36336C10.0469 8.61652 10.4767 8.72693 10.9014 8.67169Z" stroke="#04ABFF" stroke-width="1.5" stroke-linecap="round" stroke-linejoin="round"/>
<path d="M13.585 11.5468H16.0266C16.2126 11.5431 16.3945 11.6018 16.5433 11.7135C16.6952 11.8212 16.8067 11.9767 16.86 12.1551L18.3183 16.6968C18.3731 16.8284 18.3932 16.9719 18.3766 17.1135C18.357 17.2525 18.3025 17.3844 18.2183 17.4968C18.1369 17.6109 18.0279 17.7026 17.9016 17.7635C17.7707 17.8212 17.6278 17.8469 17.485 17.8385H3.81C3.67321 17.8378 3.5387 17.8034 3.41833 17.7385C3.2946 17.681 3.18825 17.5919 3.11 17.4801C3.02703 17.3701 2.97263 17.2413 2.95166 17.1051C2.9178 16.9711 2.9178 16.8308 2.95166 16.6968L4.41 12.1551C4.46985 11.98 4.58 11.8264 4.72667 11.7135C4.87738 11.6055 5.05797 11.5473 5.24333 11.5468H7.74333" stroke="#04ABFF" stroke-width="1.5" stroke-linecap="round" stroke-linejoin="round"/>
</g>
<defs>
<clipPath id="clip0_72_2084">
<rect width="20" height="20" fill="white" transform="translate(0.660156 0.130005)"/>
</clipPath>
</defs>
</svg>
