<svg width="20" height="21" viewBox="0 0 20 21" fill="none" xmlns="http://www.w3.org/2000/svg">
<g clip-path="url(#clip0_72_1937)">
<g clip-path="url(#clip1_72_1937)">
<path d="M10 0.0499878C4.47717 0.0499878 0 4.52715 0 10.05C0 15.5728 4.47717 20.05 10 20.05C15.5228 20.05 20 15.5728 20 10.05C19.9937 4.52974 15.5202 0.0562378 10 0.0499878ZM18.972 12.6147L18.3457 12.411L18.1393 13.0443L18.7683 13.2487C18.5082 13.9583 18.1627 14.6337 17.7397 15.26L17.2063 14.8733L16.8143 15.4127L17.3437 15.7973C16.8778 16.3919 16.3423 16.9283 15.7483 17.395L15.3637 16.8657L14.8243 17.2577L15.211 17.791C14.5848 18.2136 13.9095 18.5586 13.2 18.8183L12.9957 18.1893L12.3623 18.3957L12.566 19.022C11.8389 19.2302 11.0892 19.3487 10.3333 19.375V18.7167H9.66667V19.375C8.91125 19.3487 8.16197 19.2301 7.43533 19.022L7.639 18.3957L7.00567 18.1893L6.8 18.8183C6.09037 18.5582 5.41497 18.2127 4.78867 17.7897L5.17533 17.2563L4.636 16.8643L4.25133 17.3937C3.65703 16.9273 3.12097 16.3913 2.65467 15.797L3.184 15.4123L2.792 14.873L2.25867 15.2597C1.83684 14.6337 1.49254 13.9589 1.23333 13.25L1.86233 13.0457L1.656 12.4123L1.02967 12.616C0.820929 11.889 0.701824 11.1392 0.675 10.3833H1.33333V9.71665H0.675C0.701373 8.96124 0.819918 8.21196 1.028 7.48532L1.65433 7.68899L1.86067 7.05565L1.23333 6.84999C1.49349 6.14035 1.83892 5.46496 2.262 4.83865L2.79533 5.22532L3.18733 4.68599L2.655 4.30165C3.1213 3.70735 3.65737 3.17129 4.25167 2.70499L4.63633 3.23432L5.17567 2.84232L4.789 2.30899C5.41533 1.88695 6.09062 1.54254 6.8 1.28332L7.00433 1.91232L7.63767 1.70599L7.434 1.07965C8.16099 0.870917 8.91075 0.751812 9.66667 0.724988V1.38332H10.3333V0.724988C11.0887 0.751361 11.838 0.869905 12.5647 1.07799L12.361 1.70432L12.9943 1.91065L13.2 1.28332C13.9097 1.54348 14.585 1.8889 15.2113 2.31199L14.8247 2.84532L15.364 3.23732L15.7487 2.70799C16.343 3.17429 16.879 3.71035 17.3453 4.30465L16.816 4.68932L17.208 5.22865L17.7413 4.84199C18.1636 5.46732 18.5085 6.14158 18.7683 6.84999L18.1393 7.05432L18.3457 7.68765L18.972 7.48399C19.1802 8.21105 19.2987 8.96082 19.325 9.71665H18.6667V10.3833H19.325C19.2987 11.1387 19.1801 11.888 18.972 12.6147Z" fill="black"/>
<path d="M9.99988 2.71666C5.94975 2.71666 2.6665 5.99991 2.6665 10.05C2.6665 14.1001 5.94975 17.3833 9.99988 17.3833C14.05 17.3833 17.3332 14.1001 17.3332 10.05C17.3286 6.00183 14.048 2.72124 9.99988 2.71666ZM9.99988 16.7167C6.31792 16.7167 3.33317 13.7319 3.33317 10.05C3.33317 6.36808 6.31792 3.38333 9.99988 3.38333C13.6818 3.38333 16.6665 6.36808 16.6665 10.05C16.6623 13.7302 13.68 16.7125 9.99988 16.7167Z" fill="black"/>
<path d="M10.0002 4.38333C6.87054 4.38333 4.3335 6.92037 4.3335 10.05C4.3335 13.1797 6.87054 15.7167 10.0002 15.7167C13.1298 15.7167 15.6669 13.1797 15.6669 10.05C15.6634 6.92183 13.1284 4.38683 10.0002 4.38333ZM14.2865 7.489C14.674 8.13232 14.9103 8.85532 14.9775 9.60332L12.8899 9.43466C12.8244 9.42916 12.762 9.40449 12.7106 9.36374C12.6591 9.32291 12.6209 9.26782 12.6006 9.20541C12.5804 9.14291 12.579 9.07591 12.5967 9.01266C12.6145 8.94941 12.6505 8.89282 12.7002 8.84999L14.2865 7.489ZM11.1132 5.17933L10.3079 7.11267C10.2825 7.1734 10.2398 7.22527 10.185 7.26177C10.1303 7.29826 10.066 7.31773 10.0002 7.31773C9.93437 7.31773 9.87004 7.29826 9.81529 7.26177C9.76054 7.22527 9.71779 7.1734 9.69254 7.11267L8.8872 5.17933C9.61912 5.00687 10.3812 5.00687 11.1132 5.17933ZM5.71383 7.48891L7.30016 8.84999C7.35013 8.89282 7.3863 8.94949 7.40412 9.01282C7.42194 9.07616 7.4206 9.14341 7.40029 9.20599C7.37997 9.26857 7.34157 9.32374 7.28995 9.36457C7.23831 9.40541 7.17576 9.42999 7.11016 9.43532L5.0225 9.60399C5.08966 8.85566 5.32606 8.13244 5.71383 7.48891ZM8.52087 12.608L8.03683 14.6473C7.34722 14.3497 6.73315 13.9011 6.23983 13.3347H6.23883L8.02283 12.2463C8.07901 12.212 8.1441 12.1952 8.20987 12.1977C8.27565 12.2004 8.3392 12.2224 8.39245 12.2611C8.4457 12.2998 8.48629 12.3534 8.5092 12.4151C8.53204 12.4768 8.53604 12.544 8.52087 12.608ZM11.9635 14.6473H11.9625L11.4775 12.608C11.4623 12.544 11.4663 12.4768 11.4892 12.4151C11.512 12.3534 11.5526 12.2998 11.6059 12.2611C11.6591 12.2224 11.7227 12.2004 11.7885 12.1977C11.8542 12.1952 11.9193 12.212 11.9755 12.2463L13.7595 13.3347C13.2665 13.901 12.6527 14.3495 11.9635 14.6473ZM12.3235 11.677C11.852 11.3893 11.2367 11.5383 10.949 12.0097C10.8115 12.2351 10.7687 12.5056 10.8299 12.7623L11.3299 14.865C10.4603 15.1117 9.53937 15.1117 8.66987 14.865L9.1692 12.7623C9.29695 12.2251 8.96495 11.6859 8.42762 11.5582C8.17097 11.4972 7.90066 11.54 7.6755 11.6773L5.83083 12.8033C5.33276 12.0501 5.04949 11.1752 5.0115 10.273L7.16416 10.099C7.71458 10.0539 8.1242 9.57107 8.07908 9.02066C8.05755 8.75816 7.93336 8.51482 7.7335 8.34333L6.0935 6.93667C6.65705 6.23158 7.40039 5.69161 8.24516 5.37366L9.07587 7.368C9.28812 7.87783 9.87354 8.11908 10.3835 7.90675C10.627 7.8053 10.8207 7.61164 10.9222 7.368L11.7532 5.37366C12.5979 5.69171 13.3412 6.23167 13.9049 6.93667L12.2669 8.34333C11.8477 8.70299 11.7995 9.33432 12.159 9.75341C12.3307 9.95349 12.5744 10.0777 12.8372 10.099L14.9899 10.273C14.9519 11.1752 14.6685 12.0501 14.1705 12.8033L12.3235 11.677Z" fill="black"/>
<path d="M9.99984 8.71665C9.2635 8.71665 8.6665 9.31365 8.6665 10.05C8.6665 10.7864 9.2635 11.3833 9.99984 11.3833C10.7363 11.3833 11.3332 10.7864 11.3332 10.05C11.3332 9.31365 10.7363 8.71665 9.99984 8.71665ZM9.99984 10.7167C9.63167 10.7167 9.33317 10.4182 9.33317 10.05C9.33317 9.68182 9.63167 9.38332 9.99984 9.38332C10.3681 9.38332 10.6665 9.68182 10.6665 10.05C10.6665 10.4182 10.3681 10.7167 9.99984 10.7167Z" fill="black"/>
</g>
</g>
<defs>
<clipPath id="clip0_72_1937">
<rect width="20" height="20" fill="white" transform="translate(0 0.0499878)"/>
</clipPath>
<clipPath id="clip1_72_1937">
<rect width="20" height="20" fill="white" transform="translate(0 0.0499878)"/>
</clipPath>
</defs>
</svg>
