<svg width="24" height="24" viewBox="0 0 24 24" fill="none" xmlns="http://www.w3.org/2000/svg">
<g clip-path="url(#clip0_9_8699)">
<path d="M13.3146 19.942H10.6714C10.2496 19.942 10.2496 19.2953 10.6714 19.2953H13.3146C13.7364 19.2953 13.7364 19.942 13.3146 19.942Z" fill="#333333"/>
<path fill-rule="evenodd" clip-rule="evenodd" d="M5.5536 14.051C4.97715 13.7698 6.07381 12.3216 6.9877 12.8981V10.1142C6.9877 9.9877 7.058 9.87522 7.18453 9.81898L8.02812 9.41125L7.15641 8.93322C7.058 8.87698 6.9877 8.7645 6.9877 8.65202V4.74341C6.9877 4.51845 7.18453 4.42004 7.38137 4.42004C12.1476 4.42004 16.225 7.96309 16.8998 12.6731C16.9561 12.7996 17.2935 13.2777 17.4903 13.2777C17.6727 13.2714 17.7875 13.0936 17.9003 12.9191C18.0397 12.7033 18.1758 12.4925 18.4323 12.6169C18.9807 12.8981 18.123 13.9104 17.5185 13.9244C16.9968 13.9493 16.7092 13.5352 16.4718 13.1934C16.3062 12.9549 16.1651 12.7517 15.9859 12.7575C15.7586 12.7635 15.6025 13.0113 15.4224 13.2973C15.1793 13.6835 14.8923 14.1392 14.3269 14.1634C13.7957 14.1803 13.4971 13.7472 13.2583 13.4007C13.0988 13.1694 12.966 12.9768 12.8084 12.9824C12.5956 12.9883 12.4523 13.2255 12.2856 13.5015C12.056 13.8818 11.7818 14.3358 11.2197 14.3603C10.7022 14.377 10.4077 13.9526 10.1684 13.608C10.0047 13.3721 9.8669 13.1735 9.70123 13.1793C9.46986 13.1852 9.31108 13.4365 9.12877 13.725C8.87904 14.1202 8.58515 14.5852 8 14.5852C7.64851 14.5852 7.33919 14.3743 7.058 13.9666C7.02898 13.9255 6.99954 13.8815 6.96968 13.8368C6.82598 13.6219 6.67264 13.3926 6.50967 13.4042C6.32856 13.4105 6.21126 13.5859 6.09615 13.7581C5.9521 13.9735 5.81149 14.1838 5.5536 14.051ZM7.64851 5.08084C11.754 5.19332 15.2548 8.13181 16.1406 12.1107C15.0721 11.9279 14.833 13.4886 14.2988 13.5026C13.891 13.5167 13.652 12.2935 12.7803 12.3216C11.8102 12.3638 11.6977 13.6854 11.1916 13.6995C10.7979 13.7135 10.5448 12.4903 9.67311 12.5185C8.67487 12.5606 8.54833 13.9104 8 13.9244C7.90158 13.9244 7.77504 13.8401 7.64851 13.6714V10.3111L8.88576 9.72056C9.11072 9.60808 9.12478 9.25659 8.89982 9.14411L7.64851 8.45518V5.08084Z" fill="#333333"/>
<path d="M5.5536 15.949C5.00527 15.6819 5.86292 14.6696 6.48155 14.6415C6.99905 14.6248 7.29357 15.0491 7.53278 15.3938C7.69651 15.6296 7.83433 15.8282 8 15.8225C8.23412 15.8165 8.39135 15.567 8.57237 15.2797C8.8153 14.8942 9.10109 14.4407 9.67311 14.4165C10.1942 14.3997 10.4942 14.8301 10.7354 15.176C10.8976 15.4087 11.0332 15.6032 11.1916 15.5975C11.4044 15.5916 11.5477 15.3544 11.7144 15.0784C11.944 14.6981 12.2182 14.2441 12.7803 14.2197C13.2978 14.203 13.5923 14.6273 13.8316 14.972C13.9953 15.2079 14.1331 15.4064 14.2988 15.4007C14.5252 15.3947 14.6809 15.1489 14.8611 14.8644C15.1062 14.4775 15.3966 14.019 15.9719 13.9947C16.493 13.9779 16.793 14.4083 17.0342 14.7542C17.1964 14.9869 17.332 15.1814 17.4903 15.1757C17.6714 15.1633 17.7859 14.9872 17.8979 14.815C18.0381 14.5994 18.1744 14.3899 18.4323 14.5149C18.9807 14.7961 18.123 15.8084 17.5185 15.8225C17.0033 15.8474 16.7091 15.4304 16.4675 15.088C16.3004 14.851 16.1584 14.6498 15.9859 14.6555C15.7601 14.6615 15.6072 14.906 15.4304 15.1885C15.189 15.5744 14.9032 16.0312 14.3269 16.0475C13.8046 16.0727 13.5044 15.6438 13.263 15.2989C13.1015 15.0681 12.9663 14.8749 12.8084 14.8805C12.5961 14.8864 12.4531 15.1224 12.2869 15.3964C12.057 15.7757 11.7829 16.228 11.2197 16.2443C10.701 16.2694 10.4064 15.8465 10.1669 15.5028C10.0038 15.2689 9.86637 15.0716 9.70123 15.0773C9.46986 15.0833 9.31108 15.3345 9.12877 15.623C8.87904 16.0182 8.58515 16.4833 8 16.4833C7.50131 16.4833 7.20899 16.0657 6.97198 15.7271C6.80807 15.4929 6.67062 15.2965 6.50967 15.3023C6.33669 15.3085 6.22071 15.4802 6.10568 15.6506C5.95893 15.8679 5.81371 16.083 5.5536 15.949Z" fill="#333333"/>
<path d="M20.0211 15.2882C19.8383 15.2882 19.6837 15.1336 19.6837 14.9649V9.49561C19.6837 9.07381 20.3445 9.07381 20.3445 9.49561V14.9649C20.3445 15.1336 20.2039 15.2882 20.0211 15.2882Z" fill="#333333"/>
<path d="M21.5114 11.7733C21.3286 11.7733 21.174 11.6186 21.174 11.4499V5.75571C21.174 5.33392 21.8348 5.33392 21.8348 5.75571V11.4499C21.8348 11.6186 21.6801 11.7733 21.5114 11.7733Z" fill="#333333"/>
<path d="M2.48858 11.5483C2.3058 11.5483 2.1652 11.4077 2.1652 11.225V5.75571C2.1652 5.33392 2.81195 5.33392 2.81195 5.75571V11.225C2.81195 11.4077 2.67135 11.5483 2.48858 11.5483Z" fill="#333333"/>
<path d="M3.97891 15.2882C3.79613 15.2882 3.65554 15.1336 3.65554 14.9649V9.27065C3.65554 8.84886 4.30228 8.84886 4.30228 9.27065V14.9649C4.30228 15.1336 4.16169 15.2882 3.97891 15.2882Z" fill="#333333"/>
<path fill-rule="evenodd" clip-rule="evenodd" d="M14.3409 21.6573H9.65905H8.99824H1.2232C0.54833 21.6573 0 21.109 0 20.4482V4.2232C0 3.54833 0.54833 3 1.2232 3H22.7768C23.4517 3 24 3.54833 24 4.2232V20.4482C24 21.109 23.4517 21.6573 22.7768 21.6573H14.9877H14.3409ZM0.660808 18.2408H23.3392V20.4482C23.3392 20.7575 23.0861 21.0105 22.7768 21.0105H1.2232C0.913884 21.0105 0.660808 20.7575 0.660808 20.4482V18.2408ZM23.3392 17.58H0.660808V4.2232C0.660808 3.91388 0.913884 3.66081 1.2232 3.66081H22.7768C23.0861 3.66081 23.3392 3.91388 23.3392 4.2232V17.58Z" fill="#333333"/>
<path d="M13.3146 19.942H10.6714C10.2496 19.942 10.2496 19.2953 10.6714 19.2953H13.3146C13.7364 19.2953 13.7364 19.942 13.3146 19.942Z" stroke="#333333" stroke-width="0.2"/>
<path fill-rule="evenodd" clip-rule="evenodd" d="M5.5536 14.051C4.97715 13.7698 6.07381 12.3216 6.9877 12.8981V10.1142C6.9877 9.9877 7.058 9.87522 7.18453 9.81898L8.02812 9.41125L7.15641 8.93322C7.058 8.87698 6.9877 8.7645 6.9877 8.65202V4.74341C6.9877 4.51845 7.18453 4.42004 7.38137 4.42004C12.1476 4.42004 16.225 7.96309 16.8998 12.6731C16.9561 12.7996 17.2935 13.2777 17.4903 13.2777C17.6727 13.2714 17.7875 13.0936 17.9003 12.9191C18.0397 12.7033 18.1758 12.4925 18.4323 12.6169C18.9807 12.8981 18.123 13.9104 17.5185 13.9244C16.9968 13.9493 16.7092 13.5352 16.4718 13.1934C16.3062 12.9549 16.1651 12.7517 15.9859 12.7575C15.7586 12.7635 15.6025 13.0113 15.4224 13.2973C15.1793 13.6835 14.8923 14.1392 14.3269 14.1634C13.7957 14.1803 13.4971 13.7472 13.2583 13.4007C13.0988 13.1694 12.966 12.9768 12.8084 12.9824C12.5956 12.9883 12.4523 13.2255 12.2856 13.5015C12.056 13.8818 11.7818 14.3358 11.2197 14.3603C10.7022 14.377 10.4077 13.9526 10.1684 13.608C10.0047 13.3721 9.8669 13.1735 9.70123 13.1793C9.46986 13.1852 9.31108 13.4365 9.12877 13.725C8.87904 14.1202 8.58515 14.5852 8 14.5852C7.64851 14.5852 7.33919 14.3743 7.058 13.9666C7.02898 13.9255 6.99954 13.8815 6.96968 13.8368C6.82598 13.6219 6.67264 13.3926 6.50967 13.4042C6.32856 13.4105 6.21126 13.5859 6.09615 13.7581C5.9521 13.9735 5.81149 14.1838 5.5536 14.051ZM7.64851 5.08084C11.754 5.19332 15.2548 8.13181 16.1406 12.1107C15.0721 11.9279 14.833 13.4886 14.2988 13.5026C13.891 13.5167 13.652 12.2935 12.7803 12.3216C11.8102 12.3638 11.6977 13.6854 11.1916 13.6995C10.7979 13.7135 10.5448 12.4903 9.67311 12.5185C8.67487 12.5606 8.54833 13.9104 8 13.9244C7.90158 13.9244 7.77504 13.8401 7.64851 13.6714V10.3111L8.88576 9.72056C9.11072 9.60808 9.12478 9.25659 8.89982 9.14411L7.64851 8.45518V5.08084Z" stroke="#333333" stroke-width="0.2"/>
<path d="M5.5536 15.949C5.00527 15.6819 5.86292 14.6696 6.48155 14.6415C6.99905 14.6248 7.29357 15.0491 7.53278 15.3938C7.69651 15.6296 7.83433 15.8282 8 15.8225C8.23412 15.8165 8.39135 15.567 8.57237 15.2797C8.8153 14.8942 9.10109 14.4407 9.67311 14.4165C10.1942 14.3997 10.4942 14.8301 10.7354 15.176C10.8976 15.4087 11.0332 15.6032 11.1916 15.5975C11.4044 15.5916 11.5477 15.3544 11.7144 15.0784C11.944 14.6981 12.2182 14.2441 12.7803 14.2197C13.2978 14.203 13.5923 14.6273 13.8316 14.972C13.9953 15.2079 14.1331 15.4064 14.2988 15.4007C14.5252 15.3947 14.6809 15.1489 14.8611 14.8644C15.1062 14.4775 15.3966 14.019 15.9719 13.9947C16.493 13.9779 16.793 14.4083 17.0342 14.7542C17.1964 14.9869 17.332 15.1814 17.4903 15.1757C17.6714 15.1633 17.7859 14.9872 17.8979 14.815C18.0381 14.5994 18.1744 14.3899 18.4323 14.5149C18.9807 14.7961 18.123 15.8084 17.5185 15.8225C17.0033 15.8474 16.7091 15.4304 16.4675 15.088C16.3004 14.851 16.1584 14.6498 15.9859 14.6555C15.7601 14.6615 15.6072 14.906 15.4304 15.1885C15.189 15.5744 14.9032 16.0312 14.3269 16.0475C13.8046 16.0727 13.5044 15.6438 13.263 15.2989C13.1015 15.0681 12.9663 14.8749 12.8084 14.8805C12.5961 14.8864 12.4531 15.1224 12.2869 15.3964C12.057 15.7757 11.7829 16.228 11.2197 16.2443C10.701 16.2694 10.4064 15.8465 10.1669 15.5028C10.0038 15.2689 9.86637 15.0716 9.70123 15.0773C9.46986 15.0833 9.31108 15.3345 9.12877 15.623C8.87904 16.0182 8.58515 16.4833 8 16.4833C7.50131 16.4833 7.20899 16.0657 6.97198 15.7271C6.80807 15.4929 6.67062 15.2965 6.50967 15.3023C6.33669 15.3085 6.22071 15.4802 6.10568 15.6506C5.95893 15.8679 5.81371 16.083 5.5536 15.949Z" stroke="#333333" stroke-width="0.2"/>
<path d="M20.0211 15.2882C19.8383 15.2882 19.6837 15.1336 19.6837 14.9649V9.49561C19.6837 9.07381 20.3445 9.07381 20.3445 9.49561V14.9649C20.3445 15.1336 20.2039 15.2882 20.0211 15.2882Z" stroke="#333333" stroke-width="0.2"/>
<path d="M21.5114 11.7733C21.3286 11.7733 21.174 11.6186 21.174 11.4499V5.75571C21.174 5.33392 21.8348 5.33392 21.8348 5.75571V11.4499C21.8348 11.6186 21.6801 11.7733 21.5114 11.7733Z" stroke="#333333" stroke-width="0.2"/>
<path d="M2.48858 11.5483C2.3058 11.5483 2.1652 11.4077 2.1652 11.225V5.75571C2.1652 5.33392 2.81195 5.33392 2.81195 5.75571V11.225C2.81195 11.4077 2.67135 11.5483 2.48858 11.5483Z" stroke="#333333" stroke-width="0.2"/>
<path d="M3.97891 15.2882C3.79613 15.2882 3.65554 15.1336 3.65554 14.9649V9.27065C3.65554 8.84886 4.30228 8.84886 4.30228 9.27065V14.9649C4.30228 15.1336 4.16169 15.2882 3.97891 15.2882Z" stroke="#333333" stroke-width="0.2"/>
<path fill-rule="evenodd" clip-rule="evenodd" d="M14.3409 21.6573H9.65905H8.99824H1.2232C0.54833 21.6573 0 21.109 0 20.4482V4.2232C0 3.54833 0.54833 3 1.2232 3H22.7768C23.4517 3 24 3.54833 24 4.2232V20.4482C24 21.109 23.4517 21.6573 22.7768 21.6573H14.9877H14.3409ZM0.660808 18.2408H23.3392V20.4482C23.3392 20.7575 23.0861 21.0105 22.7768 21.0105H1.2232C0.913884 21.0105 0.660808 20.7575 0.660808 20.4482V18.2408ZM23.3392 17.58H0.660808V4.2232C0.660808 3.91388 0.913884 3.66081 1.2232 3.66081H22.7768C23.0861 3.66081 23.3392 3.91388 23.3392 4.2232V17.58Z" stroke="#333333" stroke-width="0.2"/>
</g>
<defs>
<clipPath id="clip0_9_8699">
<rect width="24" height="24" fill="white"/>
</clipPath>
</defs>
</svg>
