<svg width="340" height="340" viewBox="0 0 340 340" fill="none" xmlns="http://www.w3.org/2000/svg">
<path d="M256.443 27.9368L78.6605 74.3781C72.4514 76.0001 68.7328 82.3484 70.3548 88.5575L105.323 222.419C106.945 228.628 113.293 232.346 119.502 230.724L297.284 184.283C303.493 182.661 307.212 176.313 305.59 170.104L270.622 36.2425C269 30.0334 262.652 26.3148 256.443 27.9368Z" fill="white"/>
<path d="M297.265 184.239L119.327 230.718C116.359 231.474 113.213 231.027 110.573 229.474C107.933 227.922 106.012 225.391 105.229 222.43L70.3692 88.4534C69.6125 85.4906 70.0543 82.3489 71.5987 79.7097C73.1431 77.0705 75.6656 75.1464 78.6192 74.3546L256.518 27.8754C259.486 27.1202 262.633 27.5674 265.273 29.1196C267.913 30.6718 269.834 33.2035 270.617 36.1643L305.476 170.141C306.234 173.098 305.798 176.235 304.261 178.874C302.725 181.512 300.212 183.439 297.265 184.239Z" fill="white" stroke="black" stroke-width="1.09529" stroke-miterlimit="10"/>
<path d="M150.791 130.024L93.7383 144.728L98.9978 165.135L156.051 150.431L150.791 130.024Z" fill="#767676"/>
<path d="M234.803 86.8268L205.836 94.2925L210.978 114.243L239.945 106.777L234.803 86.8268Z" fill="#767676"/>
<path d="M220.207 128.317L189.965 136.217L195.3 156.641L225.542 148.741L220.207 128.317Z" fill="#AAAAAA"/>
<path d="M137.498 196.705L117.523 201.923L121.048 215.414L141.022 210.196L137.498 196.705Z" fill="#666666"/>
<path d="M253.909 164.986L223.59 172.801L228.867 193.277L259.187 185.462L253.909 164.986Z" fill="#AAAAAA"/>
<path d="M134.935 200.817L120.1 204.69C120.054 204.701 120.006 204.703 119.96 204.696C119.913 204.688 119.869 204.671 119.829 204.646C119.789 204.62 119.755 204.587 119.728 204.548C119.701 204.509 119.683 204.465 119.674 204.419C119.656 204.37 119.649 204.319 119.654 204.268C119.658 204.216 119.674 204.167 119.7 204.122C119.726 204.078 119.761 204.04 119.804 204.011C119.846 203.982 119.894 203.962 119.945 203.954L134.741 200.081C134.838 200.057 134.941 200.072 135.028 200.122C135.115 200.173 135.178 200.255 135.206 200.352C135.224 200.4 135.23 200.452 135.226 200.503C135.221 200.554 135.206 200.604 135.18 200.648C135.154 200.692 135.118 200.731 135.076 200.76C135.034 200.789 134.985 200.808 134.935 200.817Z" fill="white"/>
<path d="M135.711 203.76L120.876 207.633C120.831 207.644 120.783 207.646 120.736 207.639C120.69 207.631 120.645 207.614 120.605 207.589C120.565 207.563 120.531 207.53 120.504 207.491C120.478 207.452 120.459 207.408 120.45 207.362C120.432 207.316 120.424 207.267 120.426 207.218C120.428 207.169 120.441 207.121 120.463 207.077C120.485 207.034 120.515 206.995 120.553 206.964C120.591 206.933 120.635 206.91 120.683 206.897L135.517 203.024C135.615 203 135.718 203.015 135.804 203.065C135.891 203.116 135.955 203.198 135.982 203.295C136.006 203.392 135.991 203.495 135.94 203.582C135.89 203.669 135.808 203.732 135.711 203.76Z" fill="white"/>
<path d="M136.484 206.859L121.65 210.732C121.553 210.747 121.454 210.728 121.369 210.679C121.284 210.63 121.219 210.552 121.185 210.461C121.17 210.364 121.188 210.265 121.238 210.18C121.287 210.095 121.364 210.03 121.456 209.996L136.291 206.123C136.388 206.099 136.491 206.114 136.578 206.164C136.664 206.215 136.728 206.297 136.755 206.394C136.779 206.491 136.764 206.594 136.714 206.681C136.663 206.768 136.581 206.831 136.484 206.859Z" fill="white"/>
<path d="M190.823 161.602L171.523 166.644L174.969 179.835L194.269 174.793L190.823 161.602Z" fill="#767676"/>
<path d="M180.601 122.233L150.281 130.047L155.559 150.523L185.878 142.709L180.601 122.233Z" fill="#767676"/>
<path d="M260.059 55.7857L89.1719 100.426L93.7435 117.927L264.63 73.2865L260.059 55.7857Z" fill="#767676"/>
<path d="M291.066 174.942L120.178 219.562C120.083 219.591 119.984 219.6 119.886 219.587C119.789 219.575 119.695 219.542 119.61 219.491C119.526 219.44 119.454 219.371 119.398 219.29C119.342 219.209 119.304 219.117 119.287 219.02L88.3007 100.614C88.2717 100.517 88.2628 100.416 88.2746 100.315C88.2865 100.215 88.3189 100.118 88.3698 100.031C88.4207 99.9441 88.4889 99.8683 88.5703 99.8086C88.6517 99.7489 88.7445 99.7068 88.843 99.6845L259.731 55.0644C259.826 55.0354 259.925 55.0269 260.023 55.0391C260.121 55.0513 260.215 55.0841 260.299 55.1353C260.383 55.1865 260.455 55.255 260.511 55.3363C260.567 55.4175 260.605 55.5097 260.622 55.6067L291.608 174.013C291.656 174.208 291.626 174.413 291.525 174.587C291.424 174.76 291.259 174.888 291.066 174.942ZM120.642 217.935L290.098 173.664L259.538 56.6911L90.0824 100.924L120.642 217.935Z" fill="#767676"/>
<path d="M175.056 77.9983L144.738 85.918L149.153 102.819L179.471 94.8996L175.056 77.9983Z" fill="#767676"/>
<path d="M145.588 212.978C145.491 213.007 145.39 213.016 145.289 213.004C145.189 212.992 145.092 212.96 145.005 212.909C144.918 212.858 144.842 212.79 144.783 212.708C144.723 212.627 144.681 212.534 144.658 212.436L113.672 93.9912C113.624 93.8064 113.65 93.6102 113.744 93.444C113.838 93.2777 113.993 93.1546 114.176 93.1005C114.272 93.0714 114.374 93.0626 114.474 93.0745C114.574 93.0863 114.671 93.1186 114.758 93.1695C114.845 93.2204 114.921 93.2886 114.981 93.37C115.041 93.4514 115.083 93.5443 115.105 93.6428L146.091 212.049C146.132 212.238 146.104 212.436 146.011 212.606C145.919 212.777 145.769 212.909 145.588 212.978Z" fill="#767676"/>
<path d="M175.761 205.039C175.667 205.068 175.568 205.079 175.47 205.069C175.372 205.06 175.276 205.03 175.19 204.984C175.103 204.937 175.026 204.873 174.965 204.796C174.903 204.718 174.858 204.63 174.831 204.535L143.845 86.0905C143.796 85.9006 143.82 85.6989 143.914 85.5264C144.007 85.3539 144.163 85.2233 144.349 85.1609C144.543 85.1226 144.745 85.1563 144.916 85.2562C145.087 85.356 145.216 85.5149 145.278 85.703L176.265 204.148C176.313 204.332 176.287 204.529 176.193 204.695C176.099 204.861 175.944 204.984 175.761 205.039Z" fill="#767676"/>
<path d="M206.088 197.137C205.991 197.166 205.89 197.175 205.789 197.163C205.689 197.151 205.592 197.119 205.505 197.068C205.418 197.017 205.342 196.949 205.283 196.867C205.223 196.786 205.181 196.693 205.158 196.595L174.172 78.1502C174.124 77.9654 174.15 77.7691 174.244 77.6029C174.338 77.4367 174.492 77.3133 174.676 77.2592C174.772 77.2301 174.874 77.2213 174.974 77.2332C175.074 77.245 175.171 77.2776 175.258 77.3284C175.345 77.3793 175.421 77.4475 175.481 77.5289C175.541 77.6103 175.583 77.703 175.605 77.8015L206.591 196.207C206.632 196.397 206.604 196.595 206.511 196.765C206.419 196.935 206.269 197.067 206.088 197.137Z" fill="#767676"/>
<path d="M236.413 189.235C236.219 189.273 236.017 189.239 235.846 189.14C235.675 189.04 235.546 188.881 235.484 188.693L204.498 70.2481C204.448 70.0582 204.473 69.8566 204.566 69.6841C204.66 69.5115 204.815 69.3809 205.001 69.3186C205.196 69.2802 205.397 69.3143 205.568 69.4141C205.74 69.5139 205.868 69.6728 205.931 69.8609L236.917 188.305C236.957 188.495 236.929 188.693 236.837 188.863C236.744 189.034 236.594 189.165 236.413 189.235Z" fill="#767676"/>
<path d="M266.74 181.295C266.644 181.324 266.542 181.332 266.442 181.321C266.341 181.309 266.245 181.276 266.158 181.225C266.07 181.174 265.995 181.106 265.935 181.025C265.875 180.943 265.833 180.851 265.811 180.752L234.824 62.3076C234.776 62.1228 234.802 61.9266 234.896 61.7604C234.99 61.5941 235.145 61.471 235.328 61.4169C235.425 61.3878 235.526 61.379 235.626 61.3909C235.727 61.4028 235.823 61.435 235.911 61.4859C235.998 61.5368 236.074 61.605 236.133 61.6864C236.193 61.7678 236.235 61.8607 236.258 61.9592L267.244 180.365C267.284 180.554 267.256 180.752 267.164 180.923C267.071 181.093 266.921 181.225 266.74 181.295Z" fill="#767676"/>
<path d="M285.992 155.46L115.104 200.08C115.007 200.109 114.906 200.118 114.805 200.106C114.705 200.094 114.608 200.062 114.521 200.011C114.434 199.96 114.358 199.892 114.299 199.811C114.239 199.729 114.197 199.636 114.174 199.538C114.138 199.348 114.173 199.152 114.273 198.987C114.373 198.823 114.532 198.701 114.717 198.647L285.605 154.027C285.795 153.977 285.997 154.002 286.169 154.095C286.342 154.189 286.472 154.344 286.535 154.53C286.573 154.725 286.539 154.927 286.439 155.098C286.339 155.269 286.181 155.398 285.992 155.46Z" fill="#767676"/>
<path d="M280.645 135.048L109.757 179.745C109.665 179.775 109.569 179.785 109.473 179.775C109.378 179.765 109.285 179.736 109.201 179.688C109.118 179.641 109.045 179.577 108.987 179.5C108.929 179.423 108.888 179.335 108.866 179.242C108.836 179.148 108.826 179.049 108.835 178.951C108.845 178.853 108.874 178.757 108.921 178.671C108.968 178.584 109.032 178.507 109.109 178.446C109.186 178.384 109.275 178.339 109.369 178.312L280.258 133.692C280.355 133.663 280.456 133.654 280.557 133.666C280.657 133.678 280.754 133.711 280.841 133.762C280.928 133.812 281.004 133.881 281.063 133.962C281.123 134.043 281.165 134.136 281.188 134.235C281.213 134.413 281.171 134.594 281.071 134.744C280.971 134.894 280.82 135.002 280.645 135.048Z" fill="#767676"/>
<path d="M275.34 114.636L104.452 159.295C104.257 159.333 104.056 159.299 103.884 159.2C103.713 159.1 103.584 158.941 103.522 158.753C103.474 158.558 103.504 158.352 103.606 158.178C103.707 158.005 103.871 157.878 104.064 157.823L274.953 113.203C275.047 113.174 275.146 113.166 275.244 113.178C275.342 113.19 275.436 113.223 275.52 113.274C275.604 113.325 275.677 113.394 275.733 113.475C275.788 113.556 275.826 113.648 275.844 113.745C275.873 113.837 275.883 113.933 275.873 114.029C275.863 114.125 275.834 114.217 275.787 114.301C275.739 114.384 275.675 114.457 275.599 114.515C275.522 114.573 275.434 114.614 275.34 114.636Z" fill="#767676"/>
<path d="M269.998 94.2626L99.109 138.883C98.9146 138.921 98.7129 138.887 98.5417 138.787C98.3706 138.687 98.2417 138.528 98.1794 138.34C98.1411 138.146 98.175 137.944 98.2749 137.773C98.3747 137.602 98.5336 137.473 98.7217 137.411L269.533 92.7907C269.728 92.743 269.934 92.773 270.107 92.8742C270.281 92.9753 270.408 93.1398 270.462 93.333C270.506 93.5179 270.483 93.7119 270.398 93.8817C270.313 94.0515 270.171 94.1862 269.998 94.2626Z" fill="#767676"/>
<path d="M264.65 73.8506L93.7614 118.471C93.6673 118.494 93.5696 118.498 93.4738 118.483C93.3781 118.468 93.2862 118.435 93.2034 118.385C93.1206 118.334 93.0486 118.268 92.9915 118.19C92.9344 118.112 92.8933 118.023 92.8706 117.928C92.8416 117.834 92.833 117.735 92.8452 117.637C92.8574 117.539 92.8902 117.445 92.9414 117.361C92.9927 117.277 93.0612 117.205 93.1425 117.149C93.2237 117.093 93.3159 117.055 93.4128 117.038L264.301 72.379C264.491 72.3422 264.687 72.3773 264.852 72.4775C265.017 72.5778 265.138 72.736 265.192 72.921C265.221 73.0177 265.23 73.1194 265.218 73.2196C265.206 73.3199 265.174 73.4166 265.123 73.5038C265.072 73.591 265.004 73.6668 264.923 73.7265C264.841 73.7862 264.748 73.8283 264.65 73.8506Z" fill="#767676"/>
<path d="M146.038 69.0745L87.614 84.3363C86.248 84.6931 85.4299 86.0899 85.7868 87.4559L86.423 89.8917C86.7799 91.2577 88.1766 92.0759 89.5426 91.719L147.966 76.4572C149.332 76.1004 150.15 74.7036 149.794 73.3376L149.157 70.9019C148.8 69.5359 147.404 68.7177 146.038 69.0745Z" fill="#666666"/>
<path d="M257.29 46.6217L214.684 57.7767C214.59 57.8057 214.491 57.8142 214.393 57.802C214.295 57.7898 214.201 57.757 214.117 57.7058C214.033 57.6546 213.96 57.5861 213.904 57.5048C213.849 57.4236 213.811 57.3314 213.793 57.2344C213.745 57.0496 213.771 56.8533 213.865 56.6871C213.959 56.5209 214.114 56.3978 214.297 56.3436L256.903 45.1886C256.997 45.1596 257.096 45.1508 257.194 45.1631C257.292 45.1753 257.386 45.2083 257.47 45.2595C257.554 45.3108 257.627 45.3792 257.682 45.4605C257.738 45.5417 257.776 45.6339 257.794 45.7309C257.823 45.8224 257.833 45.919 257.823 46.0146C257.813 46.1102 257.784 46.2026 257.736 46.2862C257.689 46.3699 257.625 46.4429 257.548 46.5006C257.471 46.5584 257.383 46.5996 257.29 46.6217Z" fill="#666666"/>
<path d="M256.325 42.9422L213.719 54.0973C213.625 54.1262 213.526 54.1348 213.428 54.1226C213.33 54.1104 213.236 54.0776 213.152 54.0264C213.068 53.9751 212.995 53.9067 212.94 53.8254C212.884 53.7442 212.846 53.6519 212.828 53.555C212.78 53.3702 212.806 53.1739 212.9 53.0077C212.994 52.8415 213.149 52.7183 213.332 52.6642L255.938 41.5092C256.034 41.4801 256.136 41.4713 256.236 41.4832C256.337 41.495 256.433 41.5273 256.52 41.5782C256.608 41.629 256.683 41.6973 256.743 41.7787C256.803 41.8601 256.845 41.953 256.867 42.0515C256.891 42.1456 256.895 42.2432 256.88 42.3389C256.865 42.4347 256.832 42.5266 256.781 42.6094C256.731 42.6922 256.665 42.7643 256.586 42.8214C256.508 42.8786 256.419 42.9195 256.325 42.9422Z" fill="#666666"/>
<path d="M177.607 127.605L158.706 132.524C158.657 132.542 158.606 132.549 158.554 132.545C158.503 132.54 158.454 132.524 158.409 132.498C158.365 132.472 158.327 132.437 158.297 132.395C158.268 132.352 158.249 132.304 158.241 132.253C158.229 132.207 158.227 132.16 158.235 132.113C158.243 132.066 158.26 132.022 158.285 131.982C158.31 131.942 158.344 131.908 158.383 131.881C158.422 131.855 158.466 131.836 158.512 131.827L177.413 126.869C177.51 126.854 177.609 126.873 177.694 126.922C177.779 126.971 177.844 127.049 177.878 127.14C177.902 127.238 177.887 127.341 177.837 127.428C177.786 127.514 177.704 127.578 177.607 127.605Z" fill="white"/>
<path d="M178.497 131.096L159.595 136.015C159.549 136.027 159.502 136.029 159.455 136.021C159.408 136.013 159.364 135.996 159.324 135.971C159.284 135.946 159.25 135.912 159.223 135.873C159.197 135.834 159.178 135.79 159.169 135.744C159.151 135.699 159.143 135.65 159.145 135.601C159.147 135.552 159.159 135.504 159.181 135.46C159.203 135.416 159.234 135.377 159.272 135.346C159.31 135.315 159.354 135.292 159.401 135.279L178.303 130.36C178.401 130.336 178.503 130.351 178.59 130.402C178.677 130.452 178.741 130.535 178.768 130.631C178.783 130.728 178.764 130.827 178.715 130.912C178.666 130.997 178.588 131.062 178.497 131.096Z" fill="white"/>
<path d="M179.428 134.541L160.527 139.498C160.429 139.522 160.326 139.507 160.24 139.457C160.153 139.406 160.089 139.324 160.062 139.227C160.038 139.13 160.053 139.027 160.104 138.94C160.154 138.853 160.236 138.79 160.333 138.762L179.235 133.844C179.28 133.825 179.329 133.817 179.378 133.819C179.427 133.821 179.475 133.834 179.519 133.856C179.563 133.878 179.602 133.909 179.633 133.947C179.664 133.985 179.686 134.029 179.699 134.076C179.723 134.173 179.708 134.276 179.658 134.363C179.607 134.45 179.525 134.513 179.428 134.541Z" fill="white"/>
<path d="M214.336 137.139L199.269 141.012C199.171 141.036 199.068 141.021 198.982 140.971C198.895 140.92 198.831 140.838 198.804 140.741C198.78 140.644 198.795 140.541 198.846 140.454C198.896 140.367 198.979 140.304 199.075 140.276L214.142 136.403C214.239 136.388 214.338 136.407 214.423 136.456C214.507 136.505 214.573 136.582 214.607 136.674C214.631 136.772 214.616 136.875 214.565 136.961C214.515 137.048 214.432 137.112 214.336 137.139Z" fill="white"/>
<path d="M215.306 140.664L200.239 144.537C200.142 144.561 200.039 144.546 199.952 144.496C199.866 144.445 199.802 144.363 199.775 144.266C199.759 144.17 199.778 144.071 199.828 143.986C199.877 143.901 199.954 143.836 200.046 143.801L215.113 139.928C215.161 139.91 215.213 139.904 215.264 139.908C215.315 139.913 215.365 139.928 215.409 139.954C215.454 139.98 215.492 140.016 215.521 140.058C215.55 140.1 215.569 140.149 215.578 140.199C215.601 140.297 215.586 140.4 215.536 140.487C215.485 140.573 215.403 140.637 215.306 140.664Z" fill="white"/>
<path d="M216.155 144.112L201.088 147.985C200.99 148.009 200.887 147.994 200.801 147.943C200.714 147.893 200.65 147.81 200.623 147.714C200.605 147.666 200.598 147.614 200.603 147.563C200.607 147.511 200.623 147.462 200.649 147.418C200.675 147.373 200.71 147.335 200.753 147.306C200.795 147.277 200.843 147.257 200.894 147.249L215.961 143.376C216.058 143.361 216.157 143.379 216.242 143.429C216.327 143.478 216.392 143.555 216.426 143.647C216.45 143.744 216.435 143.847 216.384 143.934C216.334 144.021 216.252 144.084 216.155 144.112Z" fill="white"/>
<path d="M182.112 167.197C181.459 167.362 180.768 167.264 180.188 166.923C179.608 166.582 179.186 166.026 179.013 165.376C178.847 164.719 178.944 164.023 179.284 163.437C179.624 162.85 180.18 162.42 180.833 162.239C181.496 162.074 182.197 162.176 182.784 162.524C183.371 162.872 183.797 163.438 183.971 164.098C184.135 164.756 184.031 165.451 183.683 166.032C183.334 166.613 182.769 167.032 182.112 167.197ZM181.027 162.975C180.797 163.033 180.58 163.137 180.391 163.28C180.201 163.424 180.042 163.604 179.923 163.809C179.804 164.015 179.727 164.242 179.697 164.478C179.667 164.714 179.685 164.954 179.749 165.183C179.807 165.413 179.911 165.63 180.055 165.819C180.198 166.009 180.378 166.168 180.583 166.287C180.789 166.406 181.017 166.483 181.253 166.513C181.488 166.543 181.728 166.525 181.957 166.461C182.417 166.334 182.808 166.031 183.047 165.618C183.286 165.205 183.354 164.715 183.235 164.253C183.099 163.799 182.795 163.413 182.385 163.175C181.974 162.938 181.489 162.866 181.027 162.975Z" fill="#666666"/>
<path d="M142.958 284.002C140.182 273.591 146.37 262.9 156.781 260.123C167.192 257.347 177.883 263.535 180.659 273.946C183.436 284.357 177.248 295.048 166.837 297.824C156.426 300.601 145.735 294.413 142.958 284.002Z" fill="black"/>
<path d="M16.3583 283.365C13.8906 272.876 20.3927 262.373 30.8812 259.905C41.3697 257.438 51.8727 263.94 54.3404 274.428C56.8081 284.917 50.306 295.42 39.8175 297.888C29.329 300.355 18.8259 293.853 16.3583 283.365Z" fill="black"/>
<path d="M1.31417 256.838L1.30783 284.824L130.677 284.89L130.675 284.921L257.658 285.115L257.668 243.935C257.657 240.957 255.592 238.402 252.701 237.79L235.413 234.213L214.927 215.941C208.714 210.406 198.365 207.315 190.029 207.309L97.6408 207.249C92.8456 207.253 88.0964 208.513 83.9311 210.892L142.974 210.928L117.641 234.121L43.3671 234.066L17.9428 239.172C14.5319 239.856 11.2812 241.267 8.44941 243.196C6.84037 244.294 5.3493 245.584 4.04 247.039L6.35814 247.065L6.3452 256.403L5.92162 256.826L1.31417 256.838Z" fill="#5FCF86"/>
<path d="M63.7535 281.259L7.43774 281.202L14.3255 270.747L54.5959 270.785L63.7535 281.259Z" fill="black"/>
<path d="M77.2261 276.327L77.2341 281.028L1.29955 280.971L1.31898 282.1L78.3813 282.169L78.3864 276.308L77.2261 276.327Z" fill="black"/>
<path d="M78.3937 274.218L64.1758 274.207L64.1784 270.793L78.3964 270.804L78.3937 274.218Z" fill="#CFF1DB"/>
<path d="M5.91971 249.369L5.9161 256.828L15.4629 262.866L55.7333 262.904L65.2721 256.876L65.277 249.386L5.91971 249.369Z" fill="black"/>
<path d="M90.5311 247.128L90.5375 249.416L80.1287 256.883L65.305 256.88L57.9137 249.389L13.35 249.343L6.37379 256.378L5.95017 256.8L1.37405 256.813L1.39232 250.608C2.19372 249.323 3.1167 248.136 4.12997 247.046L90.5311 247.128Z" fill="#EFFAF3"/>
<path d="M43.3656 234.068L117.639 234.123L142.973 210.931L83.9296 210.894C83.8983 210.893 83.8971 210.924 83.8971 210.924L43.3656 234.068Z" fill="black"/>
<path d="M43.3658 234.065L83.8659 210.92C83.8972 210.921 83.8984 210.89 83.8984 210.89L83.8671 210.889L43.3658 234.065Z" fill="black"/>
<path d="M230.665 241.15L131.609 241.073L131.611 238.787L230.667 238.864L230.665 241.15Z" fill="#EFFAF3"/>
<path d="M211.86 218.139C206.833 213.559 197.968 210.994 191.137 210.983L154.126 210.944C151.963 210.956 149.895 211.754 148.304 213.197L125.409 234.102L131.562 238.725L229.497 238.809L229.477 253.225L230.636 253.238L230.665 235.313L211.86 218.139Z" fill="black"/>
<path d="M147.665 228.345L142.024 228.348L134.517 235.331L154.668 235.351C154.659 231.496 151.519 228.367 147.665 228.345Z" fill="#5FCF86"/>
<path d="M172.231 249.304L163.211 249.297L163.213 247.198L172.233 247.205L172.231 249.304Z" fill="black"/>
<path d="M226.579 249.335L217.559 249.328L217.56 247.229L226.58 247.236L226.579 249.335Z" fill="black"/>
<path d="M167.738 274.273L131.598 274.245L131.6 270.831L167.74 270.859L167.738 274.273Z" fill="#CFF1DB"/>
<path d="M203.476 274.312L183.715 274.297L183.717 270.883L203.479 270.899L203.476 274.312Z" fill="#F79009"/>
<path d="M118.409 253.192L110.172 253.186L110.177 247.141L118.414 247.148L118.409 253.192Z" fill="#CFF1DB"/>
<path d="M257.692 255.562L253.392 253.266L253.405 243.927L257.699 243.935L257.692 255.562Z" fill="#CF3636"/>
<path d="M248.489 279.032C248.482 280.035 248.413 281.004 248.252 281.938C248.162 282.655 248.011 283.339 247.828 284.021C245.596 292.366 237.995 298.531 228.938 298.529C218.157 298.524 209.435 289.79 209.44 279.01C209.446 268.229 218.179 259.506 228.96 259.512C239.772 259.518 248.526 268.253 248.489 279.032Z" fill="black"/>
<path d="M203.442 281.125L178.59 281.114L178.615 244.447L177.456 244.434L177.431 281.101L121.866 281.072C121.955 280.386 122.014 279.668 122.042 278.948C122.047 268.167 113.324 259.434 102.544 259.428C91.7628 259.423 83.0296 268.146 83.0241 278.926C83.0186 289.707 91.7414 298.44 102.522 298.446C111.579 298.448 119.179 292.314 121.412 283.938C121.558 283.38 121.675 282.789 121.76 282.197L203.462 282.254L203.442 281.125Z" fill="black"/>
<circle cx="11.7441" cy="11.7441" r="11.7441" transform="matrix(-0.999901 -0.0140722 -0.0140722 0.999901 114.246 266.863)" fill="#F7FDF9"/>
<circle cx="11.7441" cy="11.7441" r="11.7441" transform="matrix(-0.999901 -0.0140722 -0.0140722 0.999901 240.773 267.886)" fill="#F7FDF9"/>
<path d="M274.014 292.739L278.841 285.713L262.05 274.39L254.688 280.728L265.955 293.866L274.014 292.739Z" fill="#F5C2A2"/>
<path d="M306.672 286.847L306.445 299.077L328.072 298.851L327.149 285.713L306.672 286.847Z" fill="#F5C2A2"/>
<path d="M276.908 316.69C276.794 316.672 276.685 316.63 276.588 316.569C276.49 316.507 276.406 316.426 276.341 316.331C276.275 316.236 276.229 316.129 276.205 316.016C276.182 315.903 276.182 315.786 276.204 315.673C276.595 313.326 277.996 306.824 281.681 304.061C286.211 300.665 295.702 299.304 299.153 297.019C302.604 294.734 306.469 289.288 308.542 290.321C310.616 291.354 314.481 296.119 320.091 295.439C325.701 294.758 328.291 293.396 329.801 294.758C331.311 296.119 332.149 315.102 331.531 316.276C330.912 317.449 322.978 316.362 322.29 316.55C321.601 316.737 319.661 312.199 318.378 312.88C317.094 313.561 315.498 315.681 313.597 316.659C311.805 317.583 282.565 317.449 276.908 316.69Z" fill="#19281C"/>
<path d="M292.707 218.436L295.344 166.566L327.674 166.339C327.674 166.339 331.634 179.703 332.737 192.614C333.84 205.525 336.696 287.528 336.25 288.654C335.804 289.781 299.968 291.151 297.762 289.789C295.555 288.428 292.707 218.436 292.707 218.436Z" fill="#F26A2B"/>
<path d="M219.61 281.002C219.526 280.922 219.459 280.825 219.413 280.718C219.367 280.612 219.344 280.496 219.344 280.38C219.344 280.264 219.367 280.149 219.413 280.042C219.459 279.935 219.526 279.839 219.61 279.758C221.261 278.052 226.143 273.436 230.799 273.201C236.526 272.912 245.235 277.113 249.413 277.113C253.591 277.113 259.937 274.766 261.063 276.785C262.19 278.804 262.738 284.899 267.824 287.458C272.91 290.016 275.836 290.337 276.329 292.309C276.822 294.281 266.713 310.517 265.523 311.088C264.334 311.659 258.325 306.393 257.644 306.167C256.963 305.94 257.918 301.104 256.447 300.94C254.976 300.775 252.449 301.667 250.297 301.409C248.286 301.19 223.905 284.805 219.61 281.002Z" fill="#19281C"/>
<path d="M289.624 166.113C289.624 166.113 251.581 269.156 252.019 271.441C252.458 273.726 281.486 289.79 283.247 289.79C285.007 289.79 297.761 266.457 297.761 266.457L299.326 166.34L289.624 166.113Z" fill="#F26A2B"/>
<path d="M306.444 299.406C306.376 299.406 306.31 299.384 306.256 299.344L301.006 295.713C300.934 295.662 300.885 295.586 300.869 295.5C300.853 295.413 300.871 295.324 300.92 295.251C300.97 295.181 301.046 295.134 301.131 295.119C301.216 295.105 301.303 295.124 301.374 295.173L306.624 298.811C306.695 298.861 306.744 298.936 306.76 299.021C306.776 299.106 306.758 299.194 306.71 299.265C306.68 299.309 306.641 299.344 306.594 299.369C306.548 299.393 306.496 299.406 306.444 299.406Z" fill="white"/>
<path d="M301.188 301.534C301.117 301.532 301.048 301.507 300.992 301.464L296.868 298.334C296.834 298.308 296.805 298.275 296.783 298.238C296.761 298.2 296.747 298.159 296.741 298.116C296.735 298.073 296.738 298.03 296.749 297.988C296.76 297.946 296.78 297.907 296.806 297.872C296.831 297.838 296.863 297.809 296.9 297.787C296.937 297.766 296.977 297.752 297.02 297.746C297.062 297.74 297.105 297.743 297.146 297.754C297.187 297.765 297.226 297.784 297.26 297.81L301.391 300.94C301.459 300.994 301.503 301.072 301.515 301.158C301.527 301.244 301.505 301.331 301.454 301.401C301.423 301.443 301.383 301.476 301.336 301.5C301.29 301.523 301.239 301.535 301.188 301.534Z" fill="white"/>
<path d="M254.13 282.966C254.074 282.966 254.02 282.952 253.972 282.924C253.924 282.897 253.884 282.857 253.856 282.81L250.382 277.458C250.334 277.385 250.317 277.297 250.335 277.212C250.353 277.126 250.403 277.052 250.475 277.004C250.549 276.959 250.637 276.943 250.721 276.96C250.806 276.978 250.88 277.027 250.929 277.098L254.403 282.458C254.449 282.531 254.464 282.619 254.447 282.703C254.43 282.788 254.38 282.862 254.309 282.912C254.255 282.945 254.193 282.964 254.13 282.966Z" fill="white"/>
<path d="M247.151 281.409C247.094 281.41 247.037 281.396 246.986 281.369C246.935 281.342 246.892 281.302 246.862 281.253L244.233 276.793C244.194 276.718 244.185 276.632 244.208 276.551C244.231 276.47 244.283 276.402 244.355 276.359C244.427 276.315 244.513 276.302 244.595 276.32C244.677 276.338 244.749 276.387 244.796 276.456L247.433 280.916C247.462 280.966 247.477 281.023 247.477 281.08C247.477 281.137 247.462 281.194 247.434 281.244C247.405 281.294 247.364 281.335 247.314 281.364C247.265 281.393 247.209 281.409 247.151 281.409Z" fill="white"/>
<path d="M326.442 181.519C320.574 181.519 316.998 174.242 316.959 174.156C316.921 174.078 316.915 173.988 316.943 173.906C316.971 173.824 317.03 173.756 317.108 173.718C317.187 173.682 317.277 173.679 317.358 173.708C317.44 173.737 317.507 173.797 317.546 173.874C317.546 173.96 321.638 182.176 327.984 180.682C328.069 180.663 328.158 180.677 328.232 180.723C328.307 180.768 328.361 180.84 328.383 180.924C328.402 181.009 328.387 181.098 328.342 181.173C328.297 181.247 328.224 181.301 328.14 181.323C327.583 181.452 327.014 181.517 326.442 181.519Z" fill="black"/>
<path d="M295.529 270.924C295.485 270.923 295.442 270.913 295.401 270.895C295.361 270.878 295.324 270.852 295.294 270.82C295.263 270.788 295.239 270.75 295.223 270.709C295.207 270.668 295.2 270.624 295.201 270.58L299.207 186.41L290.443 180.627C290.407 180.604 290.375 180.574 290.35 180.538C290.326 180.503 290.308 180.463 290.3 180.42C290.291 180.378 290.291 180.334 290.299 180.292C290.308 180.249 290.325 180.209 290.35 180.173C290.397 180.101 290.472 180.05 290.557 180.033C290.642 180.015 290.731 180.032 290.803 180.079L299.723 185.964C299.769 185.996 299.806 186.04 299.831 186.09C299.855 186.141 299.867 186.197 299.864 186.253L295.858 270.611C295.852 270.695 295.815 270.773 295.754 270.831C295.694 270.889 295.613 270.922 295.529 270.924Z" fill="black"/>
<path d="M306.095 111.308C306.095 111.308 297.237 111.707 293.724 118.804C290.211 125.901 287.559 168.217 287.559 168.217C287.559 168.217 297.378 172.56 311.713 172.372C326.047 172.184 330.89 168.46 330.89 168.46L333.652 142.396C333.652 142.396 332.502 114.9 328.958 112.975C325.413 111.05 312.026 109.782 306.095 111.308Z" fill="#5FCF86"/>
<path d="M306.162 88.6167C306.162 88.6167 301.663 79.8922 305.911 78.3272C310.16 76.7623 314.839 81.6762 314.839 81.6762C314.839 81.6762 324.064 83.0455 327.288 88.2176C330.511 93.3898 321.349 101.574 321.349 101.574L306.162 88.6167Z" fill="black"/>
<path d="M319.588 103.358V111.966C319.588 111.966 318.023 114.43 313.031 114.853C309.299 115.166 307.984 114.329 307.984 114.329L308.493 109.986L308.994 105.753L318.039 103.734L319.588 103.358Z" fill="#F5C2A2"/>
<path d="M318.073 103.703C318.039 103.991 317.957 104.271 317.831 104.532C315.921 108.82 310.687 109.759 308.527 109.955L309.028 105.721L318.073 103.703Z" fill="black"/>
<path d="M307.065 86.1909C307.065 86.1909 302.597 96.9498 304.389 102.912C306.181 108.875 311.619 107.834 314.866 106.613C316.705 105.973 318.34 104.852 319.599 103.366C320.536 103.623 321.53 103.577 322.439 103.236C323.348 102.895 324.126 102.275 324.662 101.465C326.649 98.5852 325.335 95.3536 323.574 94.6337C321.814 93.9139 319.764 95.2206 319.764 95.2206L321.329 92.0907C321.329 92.0907 314.208 76.4491 307.065 86.1909Z" fill="#F5C2A2"/>
<path d="M320.097 99.8294C320.027 99.8299 319.959 99.8084 319.903 99.7678C319.846 99.7271 319.804 99.6696 319.782 99.6035C319.76 99.5373 319.76 99.4659 319.782 99.3996C319.803 99.3334 319.845 99.2756 319.901 99.2347L323.751 96.4491C323.823 96.4007 323.91 96.381 323.996 96.3941C324.081 96.4071 324.159 96.4519 324.213 96.5195C324.262 96.5916 324.282 96.68 324.267 96.7662C324.252 96.8524 324.205 96.9295 324.134 96.9812L320.285 99.7668C320.231 99.8091 320.165 99.8312 320.097 99.8294Z" fill="black"/>
<path d="M323.61 99.7749H323.532L320.989 99.1255C320.905 99.1033 320.832 99.0493 320.787 98.9749C320.742 98.9004 320.727 98.8114 320.746 98.7264C320.769 98.6425 320.823 98.5708 320.898 98.5268C320.972 98.4828 321.061 98.4702 321.146 98.4917L323.696 99.1333C323.777 99.1507 323.848 99.1979 323.896 99.2654C323.943 99.3329 323.964 99.4158 323.953 99.4977C323.942 99.5795 323.901 99.6543 323.837 99.7071C323.774 99.7599 323.693 99.7869 323.61 99.7827V99.7749Z" fill="black"/>
<path d="M307.408 98.4445C307.329 98.4473 307.252 98.4209 307.192 98.3704C307.131 98.3198 307.091 98.2487 307.08 98.1706C306.929 97.3328 306.993 96.4703 307.267 95.6641C307.54 94.8579 308.015 94.1346 308.645 93.5619C308.712 93.5071 308.799 93.4812 308.885 93.49C308.972 93.4988 309.051 93.5416 309.106 93.6089C309.134 93.6412 309.155 93.6789 309.168 93.7197C309.181 93.7605 309.185 93.8034 309.181 93.846C309.177 93.8885 309.163 93.9296 309.143 93.9669C309.122 94.0042 309.093 94.0368 309.059 94.0627C308.524 94.568 308.125 95.1998 307.898 95.8999C307.671 96.5999 307.624 97.3458 307.76 98.0689C307.772 98.1547 307.75 98.2417 307.699 98.3116C307.648 98.3816 307.572 98.4292 307.487 98.4445H307.408Z" fill="black"/>
<path d="M305.989 94.1411H305.934C305.892 94.1302 305.852 94.1109 305.817 94.0845C305.783 94.058 305.753 94.0249 305.731 93.987C305.71 93.9491 305.696 93.9072 305.69 93.8638C305.685 93.8204 305.688 93.7763 305.7 93.7342L306.232 91.7702C306.242 91.7281 306.26 91.6885 306.286 91.6537C306.311 91.6189 306.344 91.5897 306.381 91.5677C306.418 91.5458 306.46 91.5316 306.503 91.5261C306.546 91.5205 306.589 91.5237 306.631 91.5354C306.673 91.5463 306.713 91.5656 306.748 91.592C306.783 91.6185 306.812 91.6516 306.834 91.6895C306.856 91.7274 306.87 91.7693 306.875 91.8127C306.881 91.8561 306.877 91.9002 306.866 91.9423L306.333 93.9064C306.313 93.9801 306.268 94.0442 306.205 94.0872C306.141 94.1302 306.065 94.1493 305.989 94.1411Z" fill="black"/>
<path d="M311.415 94.5086H311.329C311.287 94.4987 311.247 94.4803 311.212 94.4546C311.177 94.4289 311.148 94.3964 311.126 94.3592C311.104 94.3219 311.09 94.2806 311.085 94.2377C311.079 94.1948 311.082 94.1512 311.094 94.1096L311.626 92.1378C311.652 92.0568 311.707 91.9888 311.782 91.948C311.856 91.9073 311.944 91.8969 312.026 91.9192C312.108 91.9415 312.178 91.9946 312.221 92.0674C312.265 92.1403 312.279 92.2271 312.26 92.3099L311.728 94.2817C311.705 94.3472 311.663 94.404 311.607 94.4446C311.551 94.4853 311.484 94.5076 311.415 94.5086Z" fill="black"/>
<path d="M306.161 88.6165C306.48 88.0868 306.93 87.6477 307.467 87.3409C308.004 87.0341 308.61 86.8699 309.228 86.8638C309.865 86.8655 310.494 86.9983 311.077 87.2541C311.66 87.5099 312.184 87.8831 312.616 88.3504C312.616 88.3504 311.693 91.9498 314.604 93.8277C317.515 95.7056 319.76 95.1892 319.76 95.1892L321.873 94.4067L323.438 91.3238L317.319 84.7667L309.408 80.6196L305.402 84.2816L306.161 88.6165Z" fill="black"/>
<path d="M314.84 81.6759C314.84 81.6759 315.106 76.9341 320.098 79.0155C325.09 81.0968 324.714 87.5757 324.714 87.5757L314.84 81.6759Z" fill="black"/>
<path d="M305.772 89.0157C305.69 89.0181 305.611 88.9895 305.55 88.9357C305.489 88.882 305.451 88.8071 305.443 88.7262C305.439 88.683 305.443 88.6394 305.456 88.5978C305.468 88.5563 305.489 88.5177 305.517 88.4842C305.544 88.4508 305.578 88.4231 305.617 88.4029C305.655 88.3826 305.697 88.3702 305.74 88.3663L307.368 88.2098C307.411 88.2043 307.454 88.2078 307.496 88.2201C307.538 88.2324 307.576 88.2532 307.609 88.2811C307.642 88.3091 307.669 88.3436 307.688 88.3825C307.707 88.4214 307.718 88.4638 307.72 88.5071C307.729 88.5931 307.703 88.6791 307.649 88.7465C307.595 88.8139 307.516 88.8572 307.43 88.8671L305.803 89.0157H305.772Z" fill="black"/>
<path d="M313.096 91.2376C313.053 91.2492 313.007 91.2492 312.963 91.2376L310.765 90.283C310.685 90.2485 310.622 90.1839 310.59 90.1033C310.558 90.0227 310.559 89.9325 310.593 89.8526C310.629 89.7723 310.695 89.7093 310.777 89.6771C310.859 89.6449 310.95 89.6461 311.031 89.6804L313.222 90.6429C313.301 90.6773 313.364 90.7419 313.396 90.8225C313.429 90.9032 313.428 90.9933 313.394 91.0732C313.363 91.1245 313.32 91.1668 313.267 91.1957C313.215 91.2245 313.156 91.239 313.096 91.2376Z" fill="black"/>
<path d="M306.585 101.355C306.528 101.356 306.473 101.342 306.423 101.314C306.374 101.287 306.333 101.247 306.303 101.199L305.09 99.2976C305.067 99.2611 305.051 99.2204 305.044 99.1779C305.037 99.1353 305.038 99.0917 305.047 99.0496C305.056 99.0074 305.074 98.9675 305.099 98.9322C305.124 98.8969 305.155 98.8669 305.192 98.8438C305.266 98.799 305.355 98.7846 305.439 98.8036C305.524 98.8225 305.598 98.8733 305.646 98.9454L306.859 100.847C306.882 100.883 306.897 100.924 306.905 100.967C306.912 101.009 306.911 101.053 306.902 101.095C306.892 101.137 306.875 101.177 306.85 101.212C306.825 101.248 306.793 101.278 306.757 101.301C306.705 101.333 306.646 101.352 306.585 101.355Z" fill="black"/>
<path d="M290.586 113.116C290.586 113.116 296.063 95.0486 298.41 95.3224C300.758 95.5963 305.265 100.189 306.235 101.872C307.205 103.554 306.235 105.69 306.235 105.69C306.235 105.69 307.142 106.833 306.235 107.56C305.327 108.288 302.729 106.739 302.729 106.739C302.729 106.739 305.022 118.233 298.293 119.61C291.564 120.987 290.586 113.116 290.586 113.116Z" fill="#F5C2A2"/>
<path d="M294.003 146.011C295.769 142.36 297.121 138.523 298.032 134.571C299.331 128.523 301.162 119.493 301.162 119.493L289.269 110.643C289.269 110.643 279.332 125.839 275.866 140.377C272.399 154.915 274.974 159.32 282.368 158.421C291.069 157.31 294.003 146.011 294.003 146.011Z" fill="#5FCF86"/>
<path d="M295.083 147.591L291.366 161.957C288.416 161.957 280.459 161.847 277.94 160.689C274.81 159.265 274.419 157.317 274.419 157.317C274.419 157.317 272.29 155.29 272.415 154.187C272.541 153.084 273.746 148.131 273.746 148.131C273.746 148.131 272.024 144.054 273.597 143.827C275.17 143.6 277.893 143.24 277.893 143.24C277.893 143.24 282.978 141.01 285.177 141.636C287.376 142.262 293.221 147.638 293.221 147.638L295.083 147.591Z" fill="#F5C2A2"/>
<path d="M312.195 115.127C308.87 115.127 307.587 114.344 307.5 114.344C307.464 114.321 307.432 114.291 307.408 114.256C307.383 114.22 307.365 114.18 307.356 114.138C307.346 114.096 307.345 114.053 307.353 114.01C307.36 113.967 307.376 113.927 307.399 113.89C307.422 113.854 307.452 113.822 307.487 113.797C307.523 113.773 307.562 113.755 307.605 113.745C307.647 113.736 307.69 113.735 307.733 113.742C307.775 113.75 307.816 113.765 307.853 113.789C307.853 113.789 309.48 114.743 313.783 114.446C314.989 114.397 316.17 114.092 317.249 113.553C318.328 113.013 319.28 112.251 320.043 111.316C320.096 111.255 320.169 111.215 320.249 111.204C320.329 111.193 320.411 111.213 320.478 111.258C320.544 111.304 320.592 111.372 320.612 111.451C320.631 111.529 320.621 111.612 320.583 111.684C319.77 112.716 318.743 113.559 317.571 114.154C316.399 114.748 315.112 115.08 313.799 115.127C313.236 115.111 312.688 115.127 312.195 115.127Z" fill="black"/>
<path d="M285.219 144.54H285.133L279.578 142.897C279.535 142.886 279.496 142.867 279.461 142.84C279.427 142.814 279.398 142.78 279.377 142.742C279.355 142.704 279.342 142.662 279.338 142.619C279.333 142.575 279.338 142.532 279.351 142.49C279.378 142.408 279.435 142.34 279.511 142.299C279.586 142.259 279.675 142.249 279.758 142.271L285.313 143.914C285.355 143.926 285.393 143.946 285.427 143.972C285.461 143.999 285.49 144.032 285.511 144.07C285.532 144.108 285.545 144.15 285.55 144.193C285.555 144.236 285.552 144.279 285.54 144.321C285.515 144.386 285.472 144.442 285.414 144.481C285.357 144.521 285.289 144.541 285.219 144.54Z" fill="black"/>
<path d="M275.28 148.358C275.229 148.373 275.175 148.373 275.124 148.358L273.168 147.294C273.124 147.277 273.084 147.251 273.052 147.217C273.019 147.184 272.993 147.144 272.977 147.1C272.961 147.056 272.954 147.009 272.958 146.962C272.961 146.915 272.975 146.87 272.997 146.829C273.02 146.788 273.051 146.752 273.089 146.724C273.126 146.696 273.169 146.676 273.215 146.666C273.261 146.656 273.308 146.656 273.354 146.665C273.4 146.675 273.443 146.695 273.481 146.722L275.437 147.787C275.475 147.806 275.508 147.833 275.535 147.866C275.563 147.899 275.583 147.937 275.595 147.978C275.608 148.019 275.612 148.061 275.608 148.104C275.603 148.146 275.59 148.187 275.57 148.225C275.537 148.27 275.493 148.305 275.442 148.329C275.392 148.352 275.336 148.362 275.28 148.358Z" fill="black"/>
<path d="M306.173 105.08C306.1 105.082 306.028 105.06 305.969 105.017L300.938 101.065C300.904 101.04 300.875 101.008 300.853 100.971C300.832 100.935 300.817 100.894 300.812 100.852C300.806 100.809 300.808 100.766 300.819 100.725C300.83 100.684 300.85 100.645 300.876 100.612C300.902 100.577 300.934 100.548 300.972 100.526C301.009 100.504 301.051 100.49 301.093 100.484C301.136 100.479 301.18 100.481 301.222 100.492C301.264 100.504 301.303 100.523 301.337 100.549L306.376 104.501C306.41 104.527 306.438 104.559 306.459 104.596C306.48 104.633 306.493 104.674 306.499 104.716C306.504 104.758 306.5 104.801 306.489 104.842C306.477 104.883 306.457 104.921 306.431 104.954C306.4 104.993 306.361 105.025 306.316 105.047C306.271 105.068 306.222 105.08 306.173 105.08Z" fill="black"/>
<path d="M305.421 101.136C305.358 101.136 305.296 101.12 305.241 101.089L300.961 98.319C300.888 98.2723 300.836 98.1983 300.817 98.1132C300.797 98.0281 300.813 97.9389 300.86 97.8652C300.906 97.7915 300.98 97.7394 301.066 97.7204C301.151 97.7013 301.24 97.7168 301.313 97.7635L305.593 100.533C305.63 100.557 305.662 100.587 305.686 100.622C305.711 100.657 305.729 100.697 305.738 100.739C305.748 100.781 305.749 100.825 305.741 100.868C305.734 100.91 305.718 100.951 305.695 100.987C305.666 101.033 305.625 101.071 305.578 101.097C305.53 101.123 305.476 101.136 305.421 101.136Z" fill="black"/>
<path d="M293.168 146.308L290.586 163.804C290.586 163.804 328.777 174.876 336.852 155.416C344.927 135.956 335.702 116.222 328.926 112.943C322.15 109.665 315.436 140.51 315.436 140.51L293.168 146.308Z" fill="#5FCF86"/>
<path d="M298.009 144.546L293.329 144.018C292.509 143.925 291.769 144.515 291.676 145.335L289.601 163.724C289.508 164.544 290.098 165.284 290.918 165.377L295.599 165.905C296.419 165.997 297.159 165.408 297.251 164.587L299.327 146.199C299.419 145.379 298.83 144.639 298.009 144.546Z" fill="#CFF1DB"/>
<path d="M287.862 110.605L285.143 114.641C284.706 115.29 284.877 116.17 285.526 116.607L298.971 125.666C299.62 126.103 300.5 125.931 300.937 125.283L303.657 121.246C304.094 120.598 303.922 119.717 303.273 119.28L289.828 110.221C289.179 109.784 288.299 109.956 287.862 110.605Z" fill="#CFF1DB"/>
<path d="M305.42 144.54C305.358 144.54 305.297 144.522 305.245 144.489C305.192 144.456 305.15 144.408 305.123 144.352C305.085 144.274 305.079 144.184 305.107 144.102C305.135 144.02 305.194 143.952 305.272 143.914C305.366 143.875 314.066 139.673 322.634 138.953C322.68 138.943 322.727 138.943 322.773 138.953C322.819 138.962 322.862 138.982 322.899 139.01C322.937 139.037 322.968 139.073 322.991 139.114C323.014 139.155 323.027 139.2 323.031 139.246C323.035 139.293 323.029 139.34 323.014 139.384C322.998 139.428 322.973 139.468 322.941 139.502C322.908 139.535 322.869 139.562 322.826 139.579C322.782 139.596 322.736 139.604 322.689 139.602C314.246 140.314 305.647 144.461 305.561 144.501C305.518 144.524 305.47 144.538 305.42 144.54Z" fill="black"/>
<path d="M315.434 140.831C315.382 140.831 315.331 140.819 315.285 140.796C315.239 140.773 315.198 140.739 315.168 140.698C315.13 140.641 315.109 140.575 315.109 140.506C315.109 140.438 315.13 140.371 315.168 140.315C315.465 139.884 318.164 136.128 320.152 135.941C320.359 135.916 320.57 135.939 320.767 136.007C320.965 136.074 321.145 136.185 321.294 136.332C321.437 136.453 321.543 136.612 321.601 136.79C321.659 136.968 321.666 137.159 321.623 137.341C321.232 138.969 316.482 140.518 315.535 140.815L315.434 140.831ZM320.308 136.59H320.214C319.072 136.692 317.359 138.554 316.302 139.853C318.297 139.141 320.754 138.014 320.997 137.177C321.01 137.105 321.003 137.032 320.977 136.964C320.951 136.896 320.906 136.837 320.848 136.793C320.775 136.728 320.69 136.677 320.597 136.645C320.505 136.613 320.406 136.599 320.308 136.606V136.59Z" fill="black"/>
<path d="M296.477 282.966C296.392 282.966 296.309 282.933 296.248 282.873C296.186 282.813 296.151 282.731 296.149 282.645C296.147 282.603 296.153 282.56 296.168 282.52C296.183 282.479 296.205 282.442 296.234 282.411C296.264 282.38 296.299 282.355 296.338 282.337C296.377 282.32 296.419 282.31 296.462 282.309L336.28 280.744C336.324 280.738 336.369 280.742 336.411 280.755C336.453 280.769 336.492 280.791 336.525 280.821C336.558 280.851 336.583 280.887 336.601 280.928C336.618 280.969 336.626 281.013 336.625 281.057C336.627 281.1 336.62 281.143 336.605 281.183C336.591 281.223 336.568 281.26 336.539 281.291C336.51 281.323 336.475 281.348 336.436 281.365C336.397 281.383 336.354 281.392 336.312 281.393L296.485 282.958L296.477 282.966Z" fill="black"/>
<path d="M287.728 282.966C287.677 282.978 287.623 282.978 287.572 282.966L253.974 264.852C253.935 264.831 253.902 264.804 253.875 264.77C253.847 264.737 253.827 264.698 253.814 264.657C253.802 264.615 253.798 264.572 253.803 264.529C253.807 264.486 253.82 264.444 253.841 264.406C253.883 264.331 253.954 264.275 254.037 264.25C254.12 264.225 254.209 264.233 254.287 264.273L287.877 282.348C287.915 282.368 287.948 282.395 287.975 282.428C288.002 282.46 288.023 282.498 288.035 282.539C288.048 282.58 288.052 282.623 288.047 282.665C288.043 282.708 288.03 282.749 288.01 282.786C287.983 282.839 287.943 282.883 287.894 282.915C287.844 282.946 287.787 282.964 287.728 282.966Z" fill="black"/>
<path d="M314.244 57.8186C313.955 56.5432 312.68 55.9172 310.911 56.3163C310.183 56.4379 309.498 56.7401 308.917 57.1953C308.336 57.6505 307.878 58.2442 307.586 58.9219L305.043 57.9751C305.927 55.9563 307.75 54.4384 310.606 53.7968C313.963 53.0143 316.545 54.0628 317.14 56.6918C317.977 60.4086 314.151 61.6371 314.792 64.3288L311.889 64.9861C311.091 61.6058 314.761 60.1034 314.244 57.8186ZM312.32 68.7732C312.232 68.4145 312.252 68.0378 312.378 67.6908C312.505 67.3438 312.732 67.0422 313.03 66.8245C313.328 66.6067 313.685 66.4826 314.054 66.4678C314.423 66.453 314.788 66.5483 315.102 66.7416C315.417 66.9349 315.667 67.2174 315.821 67.5531C315.975 67.8889 316.025 68.2629 315.966 68.6274C315.907 68.992 315.741 69.3307 315.488 69.6004C315.236 69.8702 314.909 70.0589 314.55 70.1425C314.311 70.2072 314.061 70.2218 313.817 70.1853C313.572 70.1488 313.338 70.062 313.128 69.9304C312.919 69.7988 312.739 69.6253 312.599 69.4208C312.46 69.2162 312.365 68.9851 312.32 68.7419V68.7732Z" fill="#5CB3FF"/>
<path d="M318.735 68.3349C318.827 68.1348 318.957 67.9551 319.12 67.8067C319.282 67.6583 319.473 67.5442 319.68 67.4711C319.888 67.3981 320.108 67.3676 320.327 67.3816C320.547 67.3955 320.761 67.4536 320.958 67.5524C321.161 67.632 321.346 67.7519 321.501 67.9048C321.657 68.0576 321.78 68.2405 321.864 68.4422C321.947 68.6439 321.989 68.8603 321.986 69.0786C321.984 69.2968 321.937 69.5122 321.85 69.712C321.765 69.9143 321.64 70.0974 321.483 70.2504C321.326 70.4035 321.139 70.5234 320.935 70.603C320.731 70.6826 320.512 70.7202 320.293 70.7136C320.074 70.7071 319.858 70.6565 319.659 70.5649C319.447 70.4846 319.255 70.3618 319.093 70.2044C318.931 70.0469 318.802 69.8579 318.716 69.6491C318.63 69.4402 318.587 69.216 318.59 68.99C318.593 68.764 318.643 68.541 318.735 68.3349ZM324.142 56.1519L327.022 57.3881L322.616 66.2926L320.684 65.4632L324.142 56.1519Z" fill="#5CB3FF"/>
</svg>
