<svg xmlns="http://www.w3.org/2000/svg" xmlns:xlink="http://www.w3.org/1999/xlink" width="1200" zoomAndPan="magnify" viewBox="0 0 900 472.499986" height="630" preserveAspectRatio="xMidYMid meet" version="1.0"><defs><g/><clipPath id="bf3ff48056"><path d="M 0.476562 0 L 899.523438 0 L 899.523438 472 L 0.476562 472 Z M 0.476562 0 " clip-rule="nonzero"/></clipPath><clipPath id="69a099468a"><path d="M 58 272 L 131 272 L 131 343.835938 L 58 343.835938 Z M 58 272 " clip-rule="nonzero"/></clipPath><clipPath id="fb2dd041a9"><path d="M 338 272 L 411 272 L 411 343.835938 L 338 343.835938 Z M 338 272 " clip-rule="nonzero"/></clipPath></defs><g clip-path="url(#bf3ff48056)"><path fill="#ffffff" d="M 0.476562 0 L 899.523438 0 L 899.523438 472 L 0.476562 472 Z M 0.476562 0 " fill-opacity="1" fill-rule="nonzero"/><path fill="#ffffff" d="M 0.476562 0 L 899.523438 0 L 899.523438 472 L 0.476562 472 Z M 0.476562 0 " fill-opacity="1" fill-rule="nonzero"/></g><path fill="#04abff" d="M 460.894531 265.03125 L 458.519531 257.851562 L 432.171875 257.851562 L 410.628906 243.488281 L 417.808594 236.308594 L 453.714844 243.488281 L 439.351562 229.125 L 345.996094 207.582031 L 317.269531 193.21875 L 295.726562 193.21875 L 324.453125 214.761719 L 222.78125 210.296875 L 211.304688 164.4375 L 231.09375 164.4375 L 274.183594 178.800781 L 302.90625 178.800781 L 238.277344 150.074219 L 87.46875 150.074219 L 51.5625 157.257812 L 51.5625 164.4375 L 65.925781 171.617188 L 15.65625 207.523438 L 13.28125 214.707031 L 51.5625 214.707031 L 51.5625 221.886719 L 30.019531 236.25 L 22.839844 236.25 L 15.65625 229.070312 L 8.476562 229.070312 L 8.476562 257.792969 L 1.292969 264.976562 L 1.292969 293.699219 L 15.65625 308.0625 L 44.496094 311.683594 C 44.4375 310.496094 44.382812 309.308594 44.382812 308.0625 C 44.382812 280.355469 66.945312 257.792969 94.652344 257.792969 C 122.359375 257.792969 144.917969 280.355469 144.917969 308.0625 C 144.917969 310.496094 144.75 312.925781 144.410156 315.246094 L 324.960938 315.246094 C 324.621094 312.925781 324.453125 310.496094 324.453125 308.0625 C 324.453125 280.355469 347.011719 257.792969 374.71875 257.792969 C 402.429688 257.792969 424.988281 280.355469 424.988281 308.0625 C 424.988281 310.496094 424.820312 312.925781 424.480469 315.246094 L 446.535156 315.246094 L 460.894531 301.671875 L 460.894531 286.519531 L 453.714844 286.519531 L 446.535156 279.339844 L 460.894531 279.339844 Z M 87.46875 164.4375 L 126.996094 164.4375 L 111.445312 195.539062 L 101.886719 193.164062 L 80.34375 171.617188 Z M 109.011719 243.433594 L 80.289062 243.433594 L 80.289062 229.070312 L 109.011719 229.070312 Z M 130.558594 200.34375 L 130.558594 178.800781 L 135.363281 164.4375 L 202.371094 164.4375 L 202.371094 209.390625 L 159.28125 207.523438 Z M 130.558594 200.34375 " fill-opacity="1" fill-rule="nonzero"/><g clip-path="url(#69a099468a)"><path fill="#04abff" d="M 94.652344 272.214844 C 74.804688 272.214844 58.746094 288.273438 58.746094 308.121094 C 58.746094 327.96875 74.804688 344.027344 94.652344 344.027344 C 114.5 344.027344 130.558594 327.96875 130.558594 308.121094 C 130.558594 288.273438 114.5 272.214844 94.652344 272.214844 Z M 94.652344 322.480469 C 86.734375 322.480469 80.289062 316.035156 80.289062 308.121094 C 80.289062 300.203125 86.734375 293.757812 94.652344 293.757812 C 102.566406 293.757812 109.011719 300.203125 109.011719 308.121094 C 109.011719 316.035156 102.566406 322.480469 94.652344 322.480469 Z M 94.652344 322.480469 " fill-opacity="1" fill-rule="nonzero"/></g><g clip-path="url(#fb2dd041a9)"><path fill="#04abff" d="M 374.71875 272.214844 C 354.875 272.214844 338.8125 288.273438 338.8125 308.121094 C 338.8125 327.96875 354.875 344.027344 374.71875 344.027344 C 394.566406 344.027344 410.628906 327.96875 410.628906 308.121094 C 410.628906 288.273438 394.566406 272.214844 374.71875 272.214844 Z M 374.71875 322.480469 C 366.804688 322.480469 360.359375 316.035156 360.359375 308.121094 C 360.359375 300.203125 366.804688 293.757812 374.71875 293.757812 C 382.636719 293.757812 389.082031 300.203125 389.082031 308.121094 C 389.082031 316.035156 382.636719 322.480469 374.71875 322.480469 Z M 374.71875 322.480469 " fill-opacity="1" fill-rule="nonzero"/></g><g fill="#000000" fill-opacity="1"><g transform="translate(482.005683, 307.060561)"><g><path d="M 35.480469 -6.9375 L 59.136719 -41.078125 L 59.136719 0 L 67.019531 0 L 67.019531 -55.195312 L 59.136719 -55.195312 L 35.480469 -21.050781 L 11.828125 -55.195312 L 3.941406 -55.195312 L 3.941406 0 L 11.828125 0 L 11.828125 -41.078125 Z M 35.480469 -6.9375 "/></g></g></g><g fill="#000000" fill-opacity="1"><g transform="translate(563.601871, 307.060561)"><g><path d="M 56.769531 -43.367188 L 56.769531 -55.195312 L 48.886719 -55.195312 L 48.886719 -46.597656 L 29.171875 -24.914062 L 9.460938 -46.597656 L 9.460938 -55.195312 L 1.578125 -55.195312 L 1.578125 -43.367188 L 25.230469 -17.347656 L 25.230469 0 L 33.117188 0 L 33.117188 -17.347656 Z M 56.769531 -43.367188 "/></g></g></g><g fill="#000000" fill-opacity="1"><g transform="translate(632.584521, 307.060561)"><g/></g></g><g fill="#000000" fill-opacity="1"><g transform="translate(674.763378, 307.060561)"><g><path d="M 18.921875 -55.195312 C 10.09375 -54.957031 3.152344 -47.941406 3.152344 -39.425781 L 3.152344 -15.769531 C 3.152344 -6.859375 10.488281 0 18.921875 0 L 42.578125 0 C 51.410156 0 58.347656 -7.410156 58.347656 -15.769531 L 50.460938 -15.769531 C 50.460938 -11.433594 46.914062 -7.886719 42.578125 -7.886719 L 18.921875 -7.886719 C 14.585938 -7.886719 11.039062 -11.433594 11.039062 -15.769531 L 11.039062 -39.425781 C 11.039062 -43.761719 14.585938 -47.308594 18.921875 -47.308594 L 42.578125 -47.308594 C 46.914062 -47.308594 50.460938 -43.761719 50.460938 -39.425781 L 58.347656 -39.425781 C 58.109375 -48.175781 51.015625 -55.195312 42.578125 -55.195312 Z M 18.921875 -55.195312 "/></g></g></g><g fill="#000000" fill-opacity="1"><g transform="translate(746.111047, 307.060561)"><g><path d="M 43.367188 -47.308594 C 47.703125 -47.308594 51.25 -43.761719 51.25 -39.425781 L 51.25 -23.65625 L 11.828125 -23.65625 L 11.828125 -39.425781 C 11.828125 -43.761719 15.375 -47.308594 19.710938 -47.308594 Z M 59.136719 -39.425781 C 58.898438 -48.175781 51.804688 -55.195312 43.367188 -55.195312 L 19.710938 -55.195312 C 10.882812 -55.195312 3.941406 -47.78125 3.941406 -39.425781 L 3.941406 0 L 11.828125 0 L 11.828125 -15.769531 L 51.25 -15.769531 L 51.25 0 L 59.136719 0 Z M 59.136719 -39.425781 "/></g></g></g><g fill="#000000" fill-opacity="1"><g transform="translate(819.823777, 307.060561)"><g><path d="M 51.25 -31.539062 C 51.25 -27.203125 47.703125 -23.65625 43.367188 -23.65625 L 11.828125 -23.65625 L 11.828125 -47.308594 L 43.367188 -47.308594 C 47.703125 -47.308594 51.25 -43.761719 51.25 -39.425781 Z M 59.136719 0 L 59.136719 -5.597656 L 48.175781 -16.558594 C 54.71875 -18.765625 59.136719 -24.835938 59.136719 -31.539062 L 59.136719 -39.425781 C 59.136719 -48.175781 51.644531 -55.195312 43.367188 -55.195312 L 3.941406 -55.195312 L 3.941406 0 L 11.828125 0 L 11.828125 -15.769531 L 37.769531 -15.769531 L 53.539062 0 Z M 59.136719 0 "/></g></g></g></svg>