<svg width="21" height="21" viewBox="0 0 21 21" fill="none" xmlns="http://www.w3.org/2000/svg">
<g clip-path="url(#clip0_72_1903)">
<g clip-path="url(#clip1_72_1903)">
<g clip-path="url(#clip2_72_1903)">
<path d="M7.5453 10.4913L5.00928 14.1634L7.36515 15.7905C7.5963 15.9501 7.80857 15.8846 7.93676 15.699C9.58032 13.3192 9.42253 13.8576 9.44214 10.9742C9.44214 9.97793 8.1723 9.58346 7.5453 10.4913Z" stroke="#04ABFF" stroke-miterlimit="22.926" stroke-linecap="round" stroke-linejoin="round"/>
<path d="M3.26613 16.3289L1.52002 15.1232L5.78291 8.95067C5.86146 8.83678 5.96371 8.73642 6.08646 8.65575L12.4173 4.48652C12.5204 4.41202 12.6356 4.35589 12.7577 4.32061L17.5757 2.92181L18.1915 5.04672L13.5318 6.39957L12.3621 7.16988C12.0108 8.48102 12.1233 9.6706 12.4321 10.8227C12.656 11.6585 12.2546 12.1009 11.7692 12.8037L8.89025 16.9723C8.48214 17.5632 7.62286 17.7498 6.95569 17.3251C6.06725 16.7596 4.92535 15.9404 4.05879 15.3419L1.52002 19.018" stroke="#04ABFF" stroke-miterlimit="22.926" stroke-linecap="round" stroke-linejoin="round"/>
<path d="M12.3616 7.16981L11.2212 5.43793" stroke="#04ABFF" stroke-miterlimit="22.926" stroke-linecap="round" stroke-linejoin="round"/>
<path d="M6.28662 15.0262L9.35522 10.583" stroke="#04ABFF" stroke-miterlimit="22.926" stroke-linecap="round" stroke-linejoin="round"/>
<path d="M10.0081 5.8875L9.57231 5.22578C9.34306 4.87763 8.87075 4.78042 8.52264 5.00963L6.9404 6.05162C6.59232 6.28086 6.49508 6.75325 6.72429 7.10133L7.16005 7.76308" stroke="#04ABFF" stroke-miterlimit="22.926" stroke-linecap="round" stroke-linejoin="round"/>
<path d="M18.0679 7.2323C17.7266 7.2323 16.6157 8.47269 16.6157 9.4271C16.6157 10.2173 17.2719 10.8939 18.0679 10.8908C18.8638 10.8939 19.5201 10.2173 19.5201 9.4271C19.5201 8.47269 18.4092 7.2323 18.0679 7.2323Z" stroke="#04ABFF" stroke-miterlimit="22.926" stroke-linecap="round" stroke-linejoin="round"/>
</g>
</g>
</g>
<defs>
<clipPath id="clip0_72_1903">
<rect width="20" height="20" fill="white" transform="translate(0.52002 0.969971)"/>
</clipPath>
<clipPath id="clip1_72_1903">
<rect width="20" height="20" fill="white" transform="translate(0.52002 0.969971)"/>
</clipPath>
<clipPath id="clip2_72_1903">
<rect width="20" height="20" fill="white" transform="translate(0.52002 0.969971)"/>
</clipPath>
</defs>
</svg>
