<svg width="24" height="24" viewBox="0 0 24 24" fill="none" xmlns="http://www.w3.org/2000/svg">
<path d="M18.7434 7.35657C20.0707 7.35657 21.1511 6.27668 21.1511 4.94882C21.1511 3.62096 20.0707 2.54108 18.7434 2.54108C17.4158 2.54108 16.3356 3.62096 16.3356 4.94882C16.3356 6.27668 17.4158 7.35657 18.7434 7.35657ZM18.7434 3.43267C19.5793 3.43267 20.2595 4.1128 20.2595 4.94882C20.2595 5.78478 19.5794 6.46497 18.7434 6.46497C17.9074 6.46497 17.2272 5.78484 17.2272 4.94882C17.2272 4.11287 17.9073 3.43267 18.7434 3.43267ZM17.775 7.41424C16.7249 7.15169 15.6147 7.62499 15.0774 8.56563L12.8875 12.3973L12.7375 11.9846V11.9841C12.5832 11.5616 12.1775 11.2775 11.7278 11.2775C11.5551 11.2775 11.3849 11.3191 11.2317 11.3989C11.0785 11.4786 10.9467 11.5941 10.8476 11.7356C10.7486 11.877 10.6851 12.0402 10.6625 12.2114C10.64 12.3825 10.659 12.5566 10.718 12.7188L11.0876 13.7359C11.0428 13.726 10.9974 13.7204 10.9532 13.7053L7.80535 12.6563C7.25388 12.4718 6.65826 12.4658 6.1032 12.6392C5.54814 12.8127 5.06189 13.1567 4.71362 13.6224L0.366332 19.4186C-0.181349 20.1485 -0.107419 21.1852 0.537768 21.8309C0.727156 22.0207 0.955676 22.1668 1.20737 22.259C1.45906 22.3513 1.72787 22.3875 1.99501 22.3652C2.26224 22.3433 2.52148 22.2634 2.75462 22.131C2.98776 21.9986 3.18919 21.8169 3.34481 21.5986L6.9146 16.6014C7.10387 16.3345 7.4598 16.234 7.76309 16.3639L11.9307 18.1502C12.1995 18.2655 12.4825 18.3285 12.7705 18.3627L13.5141 20.4087C13.6685 20.8312 14.0741 21.1153 14.5238 21.1153C14.6965 21.1153 14.8667 21.0737 15.0199 20.9939C15.1731 20.9142 15.3049 20.7987 15.404 20.6572C15.5031 20.5158 15.5666 20.3526 15.5892 20.1815C15.6117 20.0103 15.5927 19.8362 15.5336 19.674L14.8668 17.8402C15.2119 17.5973 15.5091 17.2861 15.727 16.9231L19.2687 11.02C19.669 10.3534 19.7272 9.55924 19.43 8.84085C19.1322 8.12271 18.5291 7.60278 17.775 7.41424H17.775ZM12.2821 17.3308L8.11413 15.5442C7.43087 15.2526 6.62012 15.4779 6.18876 16.0832L2.61943 21.0801C2.53895 21.193 2.4348 21.287 2.31424 21.3555C2.19369 21.4239 2.05965 21.4653 1.92147 21.4766C1.78337 21.488 1.64443 21.4693 1.51432 21.4215C1.38422 21.3738 1.26608 21.2983 1.16813 21.2003C0.834663 20.8666 0.796392 20.3307 1.07931 19.9536L5.42673 14.1571C5.66284 13.8413 5.99257 13.608 6.36899 13.4904C6.7454 13.3728 7.14931 13.377 7.52322 13.5023L10.6708 14.5513C10.9142 14.6324 11.1652 14.6602 11.4214 14.6531L12.4102 17.3726C12.3678 17.3573 12.3237 17.3486 12.2821 17.3308ZM14.6738 20.1457C14.6531 20.1748 14.6067 20.2235 14.5238 20.2235C14.4863 20.2235 14.4497 20.2119 14.4189 20.1904C14.3882 20.1689 14.3648 20.1385 14.3519 20.1033L11.5557 12.4142C11.5455 12.3867 11.5421 12.357 11.546 12.3279C11.5499 12.2988 11.5608 12.271 11.5779 12.2471C11.5984 12.218 11.6451 12.1693 11.7277 12.1693C11.8045 12.1693 11.8736 12.2178 11.8996 12.2899L14.6959 19.9786C14.7062 20.0061 14.7095 20.0358 14.7056 20.0649C14.7018 20.094 14.6909 20.1218 14.6738 20.1457ZM18.5043 10.5613L14.9624 16.4644C14.8506 16.6504 14.7082 16.8159 14.5467 16.9598L13.287 13.4956L15.8514 9.00797C16.1915 8.41275 16.8943 8.1135 17.5591 8.27932C18.0362 8.3987 18.4176 8.7276 18.6063 9.18215C18.7944 9.63677 18.7574 10.1394 18.5043 10.5613ZM23.5086 5.45549C22.9974 5.07128 22.2665 5.14632 21.8435 5.62614L20.1692 7.52859C20.0573 7.65615 19.9729 7.80537 19.9212 7.96696C19.8695 8.12856 19.8516 8.29906 19.8687 8.46787C19.8863 8.63664 19.9384 8.79999 20.0219 8.94772C20.1054 9.09546 20.2184 9.22441 20.3539 9.32655C20.5668 9.4862 20.8258 9.57226 21.0919 9.57172C21.4359 9.57172 21.7774 9.42967 22.0187 9.1559L23.6933 7.25351C23.8052 7.1259 23.8896 6.97662 23.9412 6.81498C23.9929 6.65335 24.0107 6.48281 23.9936 6.31398C23.9761 6.14523 23.924 5.98191 23.8406 5.8342C23.7571 5.6865 23.6441 5.55758 23.5086 5.45549H23.5086ZM23.0236 6.66449L21.3491 8.56661C21.2925 8.63075 21.2138 8.67121 21.1287 8.67995C21.0436 8.68868 20.9583 8.66506 20.8899 8.61377C20.8523 8.58575 20.8209 8.55021 20.7978 8.5094C20.7747 8.46859 20.7604 8.42342 20.7557 8.37676C20.7509 8.33012 20.7558 8.283 20.7701 8.23835C20.7844 8.19371 20.8078 8.15251 20.8389 8.11735L22.5134 6.21523C22.5453 6.17893 22.5847 6.14988 22.6288 6.13004C22.6729 6.11019 22.7207 6.1 22.7691 6.10015C22.8405 6.10015 22.9122 6.12236 22.9726 6.16827C23.0103 6.19617 23.0417 6.23164 23.0648 6.27242C23.0879 6.3132 23.1023 6.35837 23.1068 6.40502C23.1118 6.45167 23.1069 6.49884 23.0926 6.54351C23.0782 6.58819 23.0548 6.62939 23.0236 6.66449Z" fill="#333333"/>
<path d="M8.13544 9.42532C8.81988 9.69883 9.46585 9.95693 10.0289 10.2374C10.4011 10.4228 10.7924 10.5149 11.1879 10.5149C11.7004 10.5149 12.2198 10.3603 12.7155 10.0537C14.1536 9.16304 15.2388 7.1079 15.2388 5.27311C15.2388 3.43832 14.1539 1.38337 12.7155 0.492817C11.8374 -0.0505533 10.8838 -0.116385 10.0289 0.309103C9.46591 0.589475 8.81968 0.847641 8.13544 1.12115C5.87692 2.02346 3.31714 3.04594 3.31714 5.27311C3.31714 7.50027 5.87692 8.52301 8.13544 9.42532ZM8.4661 1.94901C9.16817 1.66884 9.83066 1.40407 10.4269 1.10711C10.6771 0.982373 10.9328 0.920134 11.1922 0.920134C11.5374 0.920134 11.8902 1.03057 12.2463 1.25099C13.424 1.98036 14.347 3.74729 14.347 5.27337C14.347 6.79918 13.424 8.56612 12.2464 9.29549C11.6223 9.68198 11.0101 9.73018 10.4269 9.43936C9.83066 9.1424 9.16817 8.87757 8.4661 8.59753C6.3734 7.76092 4.209 6.89636 4.209 5.2733C4.209 3.65005 6.37334 2.78549 8.4661 1.94901Z" fill="#333333"/>
</svg>
